<?xml version="1.0" encoding="UTF-8"?>
<svg version="1.1" xmlns="http://www.w3.org/2000/svg" width="512" height="512">
<path d="M0 0 C168.96 0 337.92 0 512 0 C512 168.96 512 337.92 512 512 C343.04 512 174.08 512 0 512 C0 343.04 0 174.08 0 0 Z " fill="#20242A" transform="translate(0,0)"/>
<path d="M0 0 C4.01050222 2.61309285 7.68625137 5.6618276 11.32421875 8.76464844 C13.77067994 10.53759966 13.77067994 10.53759966 16.40625 9.68261719 C18.99051721 8.15331982 21.31879817 6.50564804 23.6875 4.65917969 C42.31571403 -9.14879567 63.86666514 -19.2993205 87.51171875 -16.46191406 C99.96832245 -14.04885471 110.48728459 -7.03420759 117.875 3.22167969 C123.33991728 12.00224222 125.74189824 21.23438785 127.875 31.22167969 C128.05297119 31.99777588 128.23094238 32.77387207 128.41430664 33.57348633 C128.92053131 36.4834063 129.00455379 39.20585502 129.0078125 42.15917969 C129.00910156 43.30257812 129.01039063 44.44597656 129.01171875 45.62402344 C129.00785156 46.81125 129.00398438 47.99847656 129 49.22167969 C129.00386719 50.37796875 129.00773437 51.53425781 129.01171875 52.72558594 C129.00292004 60.60043348 128.5898012 68.38003374 127.875 76.22167969 C128.57471924 76.54330078 129.27443848 76.86492187 129.99536133 77.19628906 C133.23189898 78.69249738 136.45959237 80.20694808 139.6875 81.72167969 C141.33782227 82.47964844 141.33782227 82.47964844 143.02148438 83.25292969 C162.35903946 92.37979935 178.92160879 106.59036545 187.875 126.22167969 C192.09213311 138.84505821 189.87945973 150.35466171 184.5078125 162.24902344 C172.93404284 184.15857247 149.80311046 195.98135479 127.875 205.22167969 C127.9471875 206.04925781 128.019375 206.87683594 128.09375 207.72949219 C130.15500774 234.23955706 130.72758822 262.17634144 113.32421875 284.18261719 C108.67319005 289.26655787 103.05483381 292.30416158 96.875 295.22167969 C96.19050781 295.56457031 95.50601563 295.90746094 94.80078125 296.26074219 C82.73342946 301.33424569 67.62943553 298.55826755 55.875 294.22167969 C54.8953125 293.87105469 53.915625 293.52042969 52.90625 293.15917969 C40.29476812 288.27731573 28.69899353 281.44072933 18.42578125 272.67871094 C15.97932006 270.90575972 15.97932006 270.90575972 13.34375 271.76074219 C10.75948279 273.29003956 8.43120183 274.93771133 6.0625 276.78417969 C-12.48235074 290.51186193 -34.59845374 300.46473069 -58.125 298.22167969 C-70.50761405 295.7303274 -80.88468084 288.52940288 -88.125 278.22167969 C-90.43525246 273.99931352 -92.34133376 269.68923244 -94.125 265.22167969 C-94.44339844 264.44953125 -94.76179688 263.67738281 -95.08984375 262.88183594 C-101.77000307 245.03484312 -99.74953045 223.84576092 -98.125 205.22167969 C-99.23875 204.76019531 -100.3525 204.29871094 -101.5 203.82324219 C-117.73383624 196.94956864 -131.68505456 188.79518282 -144.125 176.22167969 C-144.80046875 175.568125 -145.4759375 174.91457031 -146.171875 174.24121094 C-154.94475093 165.13838171 -159.96159455 152.58049043 -160.5625 140.09667969 C-160.23528778 123.46659969 -150.72178605 111.04375735 -139.23046875 99.91699219 C-127.82881293 89.69125884 -112.6526825 80.96541275 -98.125 76.22167969 C-98.23328125 75.03251953 -98.23328125 75.03251953 -98.34375 73.81933594 C-99.84083704 55.00178355 -100.59628127 36.45928394 -95.125 18.22167969 C-94.83625 17.25230469 -94.5475 16.28292969 -94.25 15.28417969 C-89.67664055 2.21743841 -79.98000765 -7.75582906 -67.71484375 -13.73535156 C-44.74536986 -22.98550168 -19.80863097 -12.03094774 0 0 Z " fill="#61D7F8" transform="translate(241.125,114.7783203125)"/>
<path d="M0 0 C2.71127857 0.01821606 5.42221147 0.02050893 8.13354492 0.02026367 C12.5367302 0.02708215 16.93746195 0.07953175 21.33984375 0.16256714 C23.06138676 0.19150046 24.78312249 0.21057508 26.50488281 0.22000122 C28.97171828 0.23672403 31.43510342 0.29075364 33.90112305 0.35424805 C34.63289261 0.3524202 35.36466217 0.35059235 36.11860657 0.34870911 C40.03364059 0.49446681 42.29458618 1.13445214 44.95849609 3.92358398 C46.6933965 6.22854127 48.25164493 8.33649537 49.5690918 10.88549805 C51.20046595 13.92260096 52.91536638 16.86084947 54.7565918 19.77612305 C62.07687895 31.45556221 68.54174642 43.59250718 74.72973633 55.90405273 C75.69447939 57.78098166 76.743367 59.61446315 77.81518555 61.43237305 C79.61267359 65.97406881 78.72205334 69.24806554 76.88696289 73.68774414 C75.52367202 76.62683427 74.07995045 79.51103382 72.6003418 82.39331055 C71.79608765 83.97692383 71.79608765 83.97692383 70.97558594 85.5925293 C52.37685026 121.74180208 52.37685026 121.74180208 41.9128418 132.20581055 C30.81117018 133.85710667 19.32661326 133.35834659 8.13842773 133.33618164 C4.91995534 133.33082239 1.70162246 133.33615318 -1.5168457 133.3425293 C-7.37457731 133.34615217 -13.23023836 133.30385296 -19.0871582 133.20581055 C-19.82724121 133.19388672 -20.56732422 133.18196289 -21.32983398 133.16967773 C-23.166415 133.12776498 -25.00202356 133.04769067 -26.8371582 132.96362305 C-27.78075195 132.92124512 -28.7243457 132.87886719 -29.6965332 132.83520508 C-33.97841449 131.70788789 -35.73149315 128.53618448 -37.9543457 124.90893555 C-38.2853125 124.32692383 -38.6162793 123.74491211 -38.95727539 123.14526367 C-40.22694918 120.96585819 -41.58967457 118.86372669 -42.9699707 116.75268555 C-52.02350771 102.75530386 -59.61134707 88.08615475 -67.0871582 73.20581055 C-67.47581055 72.49408691 -67.86446289 71.78236328 -68.26489258 71.04907227 C-69.63552667 67.97654037 -68.99906595 65.31233316 -68.0871582 62.20581055 C-66.51387103 58.37294323 -64.66609 54.7028185 -62.7746582 51.01831055 C-61.97040405 49.43469727 -61.97040405 49.43469727 -61.14990234 47.8190918 C-56.34004462 38.47045315 -51.15398852 29.4095094 -45.52661133 20.53100586 C-44.09137128 18.21261607 -42.75067794 15.85625067 -41.4152832 13.47924805 C-40.53725994 12.01179261 -39.65715268 10.54558145 -38.7746582 9.08081055 C-38.24569946 8.07630859 -38.24569946 8.07630859 -37.70605469 7.05151367 C-35.616375 3.74012812 -33.91971128 2.44717896 -30.12207031 1.34619141 C-20.17190398 -0.20152201 -10.04691106 -0.0694882 0 0 Z " fill="#20252B" transform="translate(251.087158203125,188.794189453125)"/>
<path d="M0 0 C10.30247674 6.4032091 14.78217494 17.4385936 17.51660156 28.85473633 C18.50319759 34.64137566 18.47582805 40.38957928 18.38671875 46.23876953 C18.35508762 48.33383766 18.34568427 50.42815222 18.33984375 52.5234375 C18.26476183 63.55424982 18.26476183 63.55424982 17.10546875 67.30859375 C13.10250429 66.67207078 9.16161391 65.90851388 5.2109375 65.00390625 C4.09831543 64.75229736 2.98569336 64.50068848 1.83935547 64.24145508 C-0.55948536 63.6950029 -2.95758069 63.14526938 -5.35498047 62.5925293 C-11.36946964 61.22809026 -17.27741331 60.06666922 -23.40429688 59.37719727 C-29.60248056 58.62674774 -33.56803375 57.52149602 -37.70703125 52.49609375 C-39.11586296 50.44245061 -40.51077442 48.37921539 -41.89453125 46.30859375 C-43.76832945 43.94032103 -45.73080118 41.65417032 -47.70703125 39.37109375 C-48.20533447 38.78787354 -48.7036377 38.20465332 -49.21704102 37.60375977 C-54.46220351 31.52400603 -60.12860043 25.89050551 -65.89453125 20.30859375 C-61.86067504 15.8817774 -57.44925672 12.88621715 -52.33203125 9.80859375 C-51.53498779 9.32592041 -50.73794434 8.84324707 -49.91674805 8.34594727 C-35.30353868 -0.34533822 -16.56995961 -8.02130373 0 0 Z " fill="#20252B" transform="translate(334.89453125,117.69140625)"/>
<path d="M0 0 C0.20568604 0.71841064 0.41137207 1.43682129 0.62329102 2.17700195 C6.12506429 21.406183 6.12506429 21.406183 13.00415039 40.1730957 C15.51521363 46.51870877 14.44695337 50.09946517 12.109375 56.2890625 C11.73159912 57.30492432 11.35382324 58.32078613 10.96459961 59.36743164 C10.56378174 60.4424292 10.16296387 61.51742676 9.75 62.625 C5.8314546 73.2855309 2.62002562 83.95376134 0 95 C-15.42635649 93.19974109 -32.80279118 79.45381456 -42.625 67.9375 C-48.060921 60.53018276 -50.86501 53.35725956 -50.5078125 44.08203125 C-48.32196623 30.81562584 -38.19376832 20.98543265 -27.7734375 13.41796875 C-7.58711283 0 -7.58711283 0 0 0 Z " fill="#20252B" transform="translate(148,208)"/>
<path d="M0 0 C16.49068277 2.80684826 34.6740114 16.27343616 44.4453125 29.609375 C49.44919171 37.30378223 51.15199703 43.75977119 50 53 C47.18476008 65.41688598 37.19849008 75.05876826 27 82 C5.92350746 95 5.92350746 95 0 95 C-0.17015625 94.35264893 -0.3403125 93.70529785 -0.515625 93.03833008 C-3.89065645 80.31351901 -7.44424648 67.86282528 -12.59765625 55.7277832 C-15.93343772 47.60008624 -13.95177294 42.49211784 -10.875 34.625 C-6.55481645 23.28977492 -3.2631961 11.67525697 0 0 Z " fill="#20252B" transform="translate(364,208)"/>
<path d="M0 0 C1.14084698 6.39786989 1.18362675 12.69980385 1.1875 19.1875 C1.19974609 20.24775391 1.21199219 21.30800781 1.22460938 22.40039062 C1.25308269 37.97529345 -1.32464683 52.43306797 -12.5625 63.9296875 C-19.47126233 69.79770679 -26.62665016 70.62413313 -35.5 70.30859375 C-50.4424194 68.99112597 -63.13870864 61.73915999 -75.5 53.6875 C-76.15331299 53.26718506 -76.80662598 52.84687012 -77.47973633 52.41381836 C-79.28125 51.19921875 -79.28125 51.19921875 -82 49 C-82 46 -82 46 -80.76586914 44.45703125 C-80.19473389 43.91433594 -79.62359863 43.37164062 -79.03515625 42.8125 C-78.40424072 42.20172607 -77.7733252 41.59095215 -77.12329102 40.96166992 C-76.44322998 40.31431885 -75.76316895 39.66696777 -75.0625 39 C-70.50244399 34.55435975 -66.08069511 30.13242672 -62.0625 25.1875 C-61.35738281 24.32382812 -60.65226562 23.46015625 -59.92578125 22.5703125 C-57.94862511 20.04024324 -57.94862511 20.04024324 -56.41796875 17.2421875 C-53.52782704 12.59900901 -50.96438503 10.03081681 -45.63671875 8.6640625 C-41.12426442 7.73463031 -36.57450039 7.09800569 -32.01269531 6.46386719 C-26.72988048 5.65046782 -21.52842381 4.47136596 -16.3125 3.3125 C-15.31468506 3.09746826 -14.31687012 2.88243652 -13.28881836 2.66088867 C-1.07471113 0 -1.07471113 0 0 0 Z " fill="#20252B" transform="translate(352,326)"/>
<path d="M0 0 C4.06713527 2.76940121 8.0217387 5.67406477 11.93408203 8.65722656 C8.65464218 12.60937202 5.30173811 16.3239167 1.62158203 19.90722656 C-3.36384488 24.83419788 -7.70363137 30.18005025 -12.06591797 35.65722656 C-13.70758476 37.70224497 -15.35330999 39.74401318 -17.00341797 41.78222656 C-17.73431641 42.69230469 -18.46521484 43.60238281 -19.21826172 44.54003906 C-22.33456856 48.11094457 -24.96747231 47.89550866 -29.56591797 48.34472656 C-40.65403485 49.56286882 -51.43405803 52.38354561 -62.25195312 55.0246582 C-65.1771547 55.68223215 -68.10473951 56.19086694 -71.06591797 56.65722656 C-74.44314866 37.9863577 -74.52566597 15.09943954 -63.76513672 -1.19042969 C-47.03478832 -22.38220433 -19.39818473 -12.60813236 0 0 Z " fill="#20252B" transform="translate(231.06591796875,128.3427734375)"/>
<path d="M0 0 C5.14904227 1.00716301 10.2873671 2.04982379 15.41015625 3.18359375 C16.32909668 3.38678223 17.24803711 3.5899707 18.19482422 3.79931641 C20.15955058 4.23655416 22.12337961 4.67783814 24.08642578 5.12255859 C28.7028019 6.14899471 33.2530514 7.0928494 37.95703125 7.60546875 C44.95997307 8.38978614 50.08318064 9.03784089 54.8125 14.8125 C56.22133171 16.86614314 57.61624317 18.92937836 59 21 C60.8737982 23.36827272 62.83626993 25.65442343 64.8125 27.9375 C65.55995483 28.81233032 65.55995483 28.81233032 66.32250977 29.70483398 C71.56767226 35.78458772 77.23406918 41.41808824 83 47 C79.23693624 51.0442122 75.31154357 54.02927892 70.625 56.9375 C69.57977173 57.5871875 69.57977173 57.5871875 68.51342773 58.25 C54.8775135 66.48903734 40.09684838 71.7213922 24 70 C16.11496398 67.76572569 10.54035294 62.69423974 6 56 C-0.33892925 44.03184351 -1.31552373 32.5356579 -1.1875 19.1875 C-1.18685547 17.89134766 -1.18621094 16.59519531 -1.18554688 15.25976562 C-1.13720855 4.86702572 -1.13720855 4.86702572 0 0 Z " fill="#20252B" transform="translate(160,326)"/>
<path d="M0 0 C7.68428944 4.71822243 13.44363101 11.86761536 16.23046875 20.49609375 C18.26401091 31.49755684 16.2002502 41.70517693 9.93359375 50.921875 C3.58630058 58.68498044 -5.0241307 62.66675345 -14.84765625 63.92578125 C-24.21228795 64.38512236 -31.79705582 61.3466728 -38.81640625 55.234375 C-46.2331566 48.02886121 -50.42951965 40.61122549 -50.75390625 30.171875 C-50.40481094 19.75719824 -46.9215785 12.35142395 -39.75 4.921875 C-28.67891936 -5.35290981 -13.41623497 -6.4805694 0 0 Z " fill="#61D8F9" transform="translate(273.37890625,225.390625)"/>
<path d="M0 0 C0.66 0 1.32 0 2 0 C2.31114746 0.58265625 2.62229492 1.1653125 2.94287109 1.765625 C9.55972998 14.12033252 16.38091763 26.2342489 24 38 C20.16678015 39.41894941 17.36834009 38.5727063 13.484375 37.56640625 C12.23398438 37.24736328 10.98359375 36.92832031 9.6953125 36.59960938 C8.38015475 36.25411016 7.06505124 35.9084044 5.75 35.5625 C4.41949337 35.21983789 3.08876611 34.87803121 1.7578125 34.53710938 C-1.49706238 33.6998046 -4.74942018 32.85379955 -8 32 C-7.43053695 25.04543253 -5.98969112 18.74016618 -4 12.0625 C-3.72671875 11.11826172 -3.4534375 10.17402344 -3.171875 9.20117188 C-1.16528614 2.33057229 -1.16528614 2.33057229 0 0 Z " fill="#21292F" transform="translate(172,278)"/>
<path d="M0 0 C0.66 0 1.32 0 2 0 C4.52869812 6.34864635 6.59491529 12.76609884 8.3125 19.375 C8.49586914 20.05240234 8.67923828 20.72980469 8.86816406 21.42773438 C9.83753616 25.28610299 10.14695274 28.16695794 9 32 C-1.29101618 35.02609005 -11.32213049 37.73601191 -22 39 C-18.82423238 33.17775936 -15.50615062 27.45426274 -12.125 21.75 C-7.88953403 14.59652256 -3.86558446 7.35997041 0 0 Z " fill="#21282F" transform="translate(338,278)"/>
<path d="M0 0 C10.67786951 1.26398809 20.70898382 3.97390995 31 7 C32.32345745 11.49975533 31.5755954 14.59705864 30.3125 19.0625 C30.13041992 19.71355713 29.94833984 20.36461426 29.76074219 21.03540039 C28.04072187 27.08866229 26.07918337 33.06105601 24 39 C23.34 39 22.68 39 22 39 C21.50113281 38.01644531 21.00226563 37.03289062 20.48828125 36.01953125 C15.47988022 26.29014513 10.00712645 16.94932803 4.16723633 7.69458008 C3.62607178 6.83630615 3.08490723 5.97803223 2.52734375 5.09375 C2.03999756 4.32740234 1.55265137 3.56105469 1.05053711 2.77148438 C0 1 0 1 0 0 Z " fill="#21272E" transform="translate(316,194)"/>
<path d="M0 0 C-0.34667725 0.54712646 -0.69335449 1.09425293 -1.05053711 1.65795898 C-8.5498313 13.53111827 -15.64656836 25.47372522 -22 38 C-22.66 38 -23.32 38 -24 38 C-25.1593876 34.35833961 -26.29997391 30.71104258 -27.4375 27.0625 C-27.76298828 26.04091797 -28.08847656 25.01933594 -28.42382812 23.96679688 C-30.29491571 17.92916375 -31.53306728 12.30687995 -32 6 C-28.08868222 4.97265056 -24.17435128 3.95781157 -20.25683594 2.9543457 C-18.92522453 2.61139907 -17.59447817 2.26507487 -16.26464844 1.9152832 C-14.35063016 1.41246002 -12.43315352 0.92286005 -10.515625 0.43359375 C-9.36352539 0.13509521 -8.21142578 -0.16340332 -7.02441406 -0.47094727 C-4.18048474 -0.96842828 -2.66645597 -0.98704647 0 0 Z " fill="#21282F" transform="translate(196,195)"/>
<path d="M0 0 C-2.81173115 4.68621858 -6.13025149 8.2462996 -10.046875 12.046875 C-11.71864226 13.71864226 -13.21515389 15.40490804 -14.6875 17.25 C-16.92691132 19.91308373 -19.21434252 21.93065445 -22 24 C-29.24371017 20.93535339 -34.05475449 14.85242701 -39 9 C-39.58652344 8.32839844 -40.17304688 7.65679687 -40.77734375 6.96484375 C-45 2.12617647 -45 2.12617647 -45 1 C-40.03788778 0.85593744 -35.07573033 0.71358683 -30.11352539 0.57275391 C-28.42894192 0.52471047 -26.74437123 0.47621672 -25.05981445 0.42724609 C-22.62454478 0.35653308 -20.18923223 0.2874935 -17.75390625 0.21875 C-17.01290176 0.19687622 -16.27189728 0.17500244 -15.50843811 0.15246582 C-10.33714712 0.00868324 -5.17331324 -0.017893 0 0 Z " fill="#21272D" transform="translate(279,338)"/>
<path d="M0 0 C3.29892367 1.44253019 5.49591661 3.23874661 8.0390625 5.7734375 C9.15667969 6.8871875 9.15667969 6.8871875 10.296875 8.0234375 C11.06515625 8.79945313 11.8334375 9.57546875 12.625 10.375 C13.40101563 11.14328125 14.17703125 11.9115625 14.9765625 12.703125 C15.7190625 13.44820312 16.4615625 14.19328125 17.2265625 14.9609375 C17.90283691 15.63946777 18.57911133 16.31799805 19.27587891 17.01708984 C21 19 21 19 23 23 C8.48 23 -6.04 23 -21 23 C-18.85642953 19.42738255 -17.27795396 17.0035729 -14.53125 14.08203125 C-13.87769531 13.38529297 -13.22414062 12.68855469 -12.55078125 11.97070312 C-11.87402344 11.25849609 -11.19726562 10.54628906 -10.5 9.8125 C-9.82324219 9.08869141 -9.14648438 8.36488281 -8.44921875 7.61914062 C-5.71878569 4.72445075 -3.32603935 2.21735957 0 0 Z " fill="#20262C" transform="translate(255,149)"/>
</svg>
