<?xml version="1.0" encoding="UTF-8"?>
<svg version="1.1" xmlns="http://www.w3.org/2000/svg" width="4070" height="1443">
<path d="M0 0 C1.13471741 -0.00067474 2.26943481 -0.00134949 3.4385376 -0.00204468 C21.68248225 0.01515173 39.54239003 0.64278728 57.625 3.25 C58.82592285 3.42160645 60.0268457 3.59321289 61.26416016 3.77001953 C100.75255663 9.61261052 139.60476316 20.97111947 175.625 38.25 C177.13924561 38.96905518 177.13924561 38.96905518 178.68408203 39.70263672 C214.62069149 56.86461696 247.97580674 79.44731685 277.00520538 106.7570681 C278.17175323 107.83225163 279.3544227 108.89003747 280.5469016 109.93638712 C288.92444056 117.31356481 296.74266342 125.23669903 304.62163925 133.13755798 C306.24558791 134.76228483 307.86975895 136.38678944 309.49413121 138.01109278 C313.95941559 142.47746099 318.42156024 146.9469545 322.88321124 151.41695185 C327.23575998 155.77713294 331.5912192 160.13440584 335.94636654 164.49199101 C344.95973146 173.51055834 353.97076052 182.53145622 362.98052979 191.55361557 C372.10865069 200.6942572 381.23790056 209.83376915 390.3685379 218.97189713 C390.94564201 219.54947495 391.52274613 220.12705277 392.11733824 220.72213295 C395.06013577 223.66733045 398.00295684 226.61250442 400.94579047 229.55766585 C406.97856309 235.59521735 413.01120239 241.63290206 419.04380465 247.67062378 C419.65131111 248.27864481 420.25881757 248.88666584 420.88473332 249.51311176 C430.33634028 258.97276683 439.7873399 268.43302845 449.23798323 277.89364624 C449.87627334 278.53260911 450.51456345 279.17157197 451.17219569 279.82989735 C453.76435796 282.42479304 456.35651829 285.01969067 458.94867773 287.61458918 C491.31930618 320.01939304 523.69563551 352.41849583 556.07424875 384.81532119 C562.14696482 390.89145689 568.21963015 396.96764329 574.29230082 403.04382436 C577.69262709 406.44611558 581.09295585 409.84840433 584.4932849 413.25069278 C585.16862907 413.92642622 585.84397324 414.60215965 586.53978239 415.29836985 C590.64572362 419.40667641 594.75167019 423.51497763 598.8576204 427.62327522 C629.7392335 458.52254717 660.62022828 489.422437 691.50037784 520.3231716 C693.6401845 522.46440361 695.77999419 524.6056326 697.91980414 526.74686132 C730.87934968 559.72830512 763.83696606 592.71167435 796.78979492 625.6998291 C797.49866053 626.40945407 798.20752613 627.11907904 798.93787251 627.8502078 C810.36773778 639.29233153 821.79748905 650.73456914 833.22721864 662.1768284 C866.15164058 695.13734138 899.07753788 728.09637584 932.01190567 761.04695129 C933.0278323 762.06338011 933.0278323 762.06338011 934.06428269 763.10034284 C948.2645805 777.30761957 962.46541324 791.51436148 976.6669334 805.72041634 C983.31724056 812.37284942 989.96743289 819.0253973 996.61756134 825.67800903 C997.59966253 826.66047049 997.59966253 826.66047049 998.60160415 827.66277965 C1019.68943628 848.75846033 1040.76908376 869.86229699 1061.84436674 890.97051412 C1083.06996252 912.22922159 1104.30322003 933.48024306 1125.54723942 954.72054057 C1128.48352416 957.65631607 1131.41971848 960.59218198 1134.35585785 963.52810287 C1134.93141539 964.10361134 1135.50697293 964.6791198 1136.09997161 965.27206792 C1145.20857537 974.38036033 1154.30873343 983.4970427 1163.40538315 992.61727226 C1172.35300841 1001.5877464 1181.30952449 1010.54926118 1190.27553006 1019.50136496 C1195.07026074 1024.28915201 1199.86066716 1029.08107075 1204.64024922 1033.88398635 C1208.99056499 1038.25538702 1213.35229056 1042.6150581 1217.7233028 1046.96576135 C1219.29061959 1048.5298069 1220.85377703 1050.09803486 1222.41215892 1051.67098315 C1240.16358255 1069.57795169 1258.64383685 1081.66143753 1284.59277344 1082.26123047 C1302.0751881 1082.16461934 1319.30918242 1076.82361273 1332.06640625 1064.5703125 C1333.625 1063.25 1333.625 1063.25 1335.625 1063.25 C1335.89054687 1062.66734375 1336.15609375 1062.0846875 1336.4296875 1061.484375 C1337.66036654 1059.18388999 1339.05160213 1057.47488125 1340.75 1055.5 C1353.52155202 1039.26226475 1359.48863749 1018.17182837 1357.234375 997.703125 C1356.05187299 990.51715124 1354.08842604 984.37880193 1350.875 977.875 C1350.56433594 977.24561523 1350.25367188 976.61623047 1349.93359375 975.96777344 C1344.54408825 965.70946167 1336.36072364 957.69878338 1328.22587585 949.60757351 C1327.06654071 948.4470608 1325.90764538 947.28610861 1324.74914753 946.12476006 C1321.56845408 942.93877787 1318.38157494 939.7590473 1315.19364215 936.58031113 C1311.72495039 933.11940785 1308.26209472 929.65267335 1304.79849529 926.18667513 C1298.72860326 920.11417863 1292.6550156 914.04539829 1286.57899094 907.97903824 C1277.54379642 898.95817497 1268.51436003 889.9315646 1259.48611608 880.90374572 C1244.29677818 865.71542856 1229.10285985 850.53170144 1213.90640259 835.35050774 C1198.85454927 820.31371344 1183.80498545 805.27463467 1168.75839233 790.23257637 C1168.29080496 789.76513057 1167.8232176 789.29768477 1167.34146091 788.81607394 C1162.5938551 784.06989861 1157.8462982 779.32367435 1153.09877374 774.57741765 C1142.9585667 764.43992066 1132.81803294 754.30275051 1122.67735291 744.16572666 C1122.19387136 743.68241872 1121.71038982 743.19911077 1121.21225732 742.70115713 C1098.20693726 719.70414116 1075.1983448 696.71040015 1052.18920773 673.71720329 C1050.66270362 672.19175662 1049.13620046 670.666309 1047.60969763 669.14086106 C1045.57218518 667.10475666 1043.53467253 665.06865247 1041.49715966 663.0325485 C1036.90392655 658.44249117 1032.31069474 653.85243256 1027.71746698 649.26236988 C1026.6953309 648.24093827 1025.67319457 647.2195069 1024.65105799 646.19807579 C1001.13751204 622.7007534 977.62517272 599.20222381 954.11338794 575.70313918 C952.58731207 574.17788802 951.06123487 572.65263819 949.53515749 571.12738855 C926.54686071 548.15154606 903.55916829 525.17509911 880.57264709 502.1974802 C879.59705656 501.22226885 878.62146603 500.2470575 877.64587549 499.27184616 C868.95811616 490.58745729 860.2703827 481.90304254 851.5827781 473.21849889 C829.90670467 451.55006866 808.22913953 429.88313373 786.54793146 408.21984109 C771.44102505 393.12540771 756.33572253 378.02937107 741.2321384 362.93161338 C732.25475346 353.95782314 723.27592643 344.98548118 714.295082 336.01515313 C708.29954203 330.02636729 702.3058053 324.03578079 696.31353745 318.04372093 C692.89726306 314.62767493 689.48018895 311.21243935 686.06089246 307.79941808 C682.94961414 304.69382343 679.84065703 301.5859245 676.73352467 298.47618199 C675.61677402 297.35930322 674.49918315 296.24326377 673.38064446 295.12817571 C638.44880211 260.29846413 616.0673626 218.58279777 615.59765625 168.32421875 C615.95020082 130.2997686 627.43898503 92.97864341 651.625 63.25 C652.07746094 62.69070801 652.52992187 62.13141602 652.99609375 61.55517578 C679.97921417 28.42041579 719.18064196 5.82328569 761.87890625 0.72265625 C806.05477669 -3.46979535 851.28126192 6.53206544 886.375 34.6875 C898.43251976 45.06434265 909.6862409 56.17297482 920.91409874 67.43001747 C922.65464195 69.17133912 924.39540779 70.91243826 926.13637471 72.65333629 C929.91849639 76.43631452 933.69905992 80.22083965 937.47824256 84.00675328 C943.13583662 89.67439649 948.79640044 95.33906694 954.45754199 101.00316647 C964.10803762 110.65886163 973.7561975 120.31688757 983.40309334 129.97617912 C993.17539512 139.76100561 1002.94882859 149.54469972 1012.72364998 159.3270092 C1013.34167751 159.94551044 1013.95970504 160.56401169 1014.59646068 161.20125539 C1017.74798398 164.35517869 1020.89953084 167.50907844 1024.05109025 170.66296564 C1030.51139995 177.12805393 1036.97157617 183.59327561 1043.43171525 190.05853438 C1044.40751295 191.03510394 1044.40751295 191.03510394 1045.40302373 192.03140217 C1055.52233347 202.15875874 1065.6410353 212.28672247 1075.7593801 222.41504312 C1076.44266831 223.09900408 1077.12595652 223.78296504 1077.82995044 224.4876521 C1080.60481271 227.26524777 1083.37967304 230.04284539 1086.15453247 232.82044392 C1120.81136991 267.51146183 1155.47391235 302.19677455 1190.13873784 336.87981029 C1196.64080339 343.38529541 1203.14281817 349.89083128 1209.64483828 356.39636181 C1213.28551063 360.03899911 1216.92618545 363.68163392 1220.56686056 367.32426845 C1221.28993538 368.04773253 1222.0130102 368.7711966 1222.75799638 369.51658383 C1227.15410828 373.91506106 1231.55022552 378.31353296 1235.9463464 382.71200122 C1269.00689559 415.79020751 1302.06682525 448.86903295 1335.12590954 481.9487033 C1337.41658933 484.24080844 1339.70727215 486.53291056 1341.99795523 488.82501241 C1377.28409026 524.13304736 1412.56829585 559.44300827 1447.84771729 594.75775146 C1448.60672067 595.51751421 1449.36572405 596.27727696 1450.14772754 597.06006283 C1462.38619774 609.31079165 1474.62455405 621.56163423 1486.8628887 633.81249846 C1522.11564027 669.10133987 1557.36986663 704.38870353 1592.63256264 739.66760826 C1593.72023924 740.75578705 1593.72023924 740.75578705 1594.8298891 741.86594925 C1610.03281909 757.07585804 1625.23628392 772.28523208 1640.44043614 787.49391909 C1647.56013659 794.61574545 1654.6797222 801.7376866 1661.79924393 808.85969162 C1662.50019007 809.56087794 1663.20113622 810.26206426 1663.92332316 810.98449866 C1686.50113483 833.57015944 1709.07076249 856.16397747 1731.63602659 878.76217397 C1754.36027911 901.51953362 1777.09218933 924.26921292 1799.83486301 947.00816417 C1802.97783657 950.15062848 1806.12071971 953.29318321 1809.2635479 956.43579292 C1810.18766162 957.35983304 1810.18766162 957.35983304 1811.13044432 958.30254063 C1820.88254281 968.0543277 1830.62619538 977.81450866 1840.36634237 987.57823147 C1849.94550352 997.18023443 1859.53354848 1006.77328956 1869.13108827 1016.35692318 C1874.75611884 1021.97434144 1880.37421703 1027.59848263 1885.98222839 1033.23289283 C1890.14925223 1037.41799619 1894.32928889 1041.58992959 1898.51444568 1045.75690423 C1900.19286305 1047.4320476 1901.86711112 1049.11138174 1903.5365997 1050.79542392 C1922.80650438 1070.22282052 1942.29744317 1081.96373917 1970.3125 1082.4375 C1991.32028529 1082.21014302 2010.31095526 1076.95374476 2025.9375 1062.5625 C2041.51279743 1045.78396071 2048.73691513 1024.10176042 2048.00390625 1001.5 C2046.72072712 979.03833154 2032.59067239 962.88344053 2017.34593201 947.7371521 C2016.21751728 946.608581 2015.08954523 945.47956715 2013.96197373 944.35015357 C2010.88540049 941.27106577 2007.80267328 938.19820637 2004.71885216 935.12637997 C2001.38524329 931.80351671 1998.05747951 928.47480856 1994.72900391 925.14680481 C1988.96741269 919.38757003 1983.20223542 913.6319456 1977.43462944 907.87873459 C1969.08762882 899.55246724 1960.74668096 891.22015747 1952.40726639 882.88629289 C1938.86449648 869.35276852 1925.3176338 855.82334905 1911.76782227 842.296875 C1910.95774462 841.48819067 1910.14766697 840.67950633 1909.31304152 839.84631641 C1908.50195126 839.03662168 1907.690861 838.22692696 1906.85519224 837.39269602 C1895.35302341 825.91029982 1883.85182571 814.42693209 1872.35180664 802.94238281 C1871.13772137 801.72993381 1871.13772137 801.72993381 1869.89910912 800.4929909 C1856.39912122 787.01103195 1842.90116783 773.52703728 1829.40425354 760.04200137 C1821.08529499 751.73062637 1812.76426598 743.42133396 1804.44053198 735.11474146 C1798.7384608 729.42424837 1793.03809205 723.73205385 1787.33905106 718.03852604 C1784.05242308 714.75522516 1780.76495591 711.47277573 1777.47525978 708.19254875 C1774.46118193 705.18713112 1771.44944273 702.17939002 1768.43950344 699.16982777 C1767.35302718 698.08431349 1766.26570126 696.99964877 1765.17741924 695.91594486 C1759.44225252 690.20397172 1753.86737048 684.42168453 1748.625 678.25 C1747.70021388 677.20109514 1746.77350456 676.15387834 1745.84375 675.109375 C1696.25905207 618.68416034 1663.97922 548.25048075 1651.8125 474.3125 C1651.52004395 472.53975708 1651.52004395 472.53975708 1651.22167969 470.73120117 C1648.12263211 450.74453058 1647.21528173 430.83173359 1647.25 410.625 C1647.25054382 409.42544678 1647.25108765 408.22589355 1647.25164795 406.98999023 C1647.29414061 386.49696881 1648.3655567 366.48257261 1651.625 346.25 C1651.7291925 345.59136963 1651.83338501 344.93273926 1651.94073486 344.25415039 C1658.75936856 301.43161055 1672.56771479 259.71615625 1692.58886719 221.25292969 C1693.69372268 219.11715343 1694.77284561 216.96939851 1695.8515625 214.8203125 C1708.76387 189.3727187 1725.27309139 166.04418752 1743.625 144.25 C1744.02997711 143.76350983 1744.43495422 143.27701965 1744.85220337 142.77578735 C1752.14798398 134.0227278 1759.80353737 125.75347882 1767.88891602 117.7253418 C1769.69721608 115.92784195 1771.49445977 114.11977684 1773.29101562 112.31054688 C1780.09660169 105.49723333 1787.05957445 99.21975021 1794.625 93.25 C1795.65293482 92.3870699 1796.6763472 91.51866456 1797.69140625 90.640625 C1864.02586107 33.75286093 1956.11665215 -0.01993247 2043.41326237 0.11857224 C2044.63789947 0.1165196 2045.86253657 0.11446697 2047.12428388 0.11235213 C2050.49842825 0.10769917 2053.8725189 0.10744729 2057.24666242 0.10912972 C2060.92717058 0.10986612 2064.60767182 0.10482556 2068.28817695 0.1005547 C2075.57665786 0.09300421 2082.86513144 0.09078315 2090.15361585 0.09022565 C2098.88849146 0.0893091 2107.62336036 0.08263302 2116.35823307 0.07587883 C2137.4641361 0.0598476 2158.57003838 0.05391913 2179.67594641 0.04913008 C2189.66544149 0.04679157 2199.654936 0.04318867 2209.64443064 0.0394347 C2243.85811738 0.02660267 2278.0718038 0.01588246 2312.2854929 0.0124321 C2314.43164672 0.01221047 2316.57780055 0.01198868 2318.72395438 0.01176675 C2320.87519485 0.01154611 2323.02643531 0.01132563 2325.17767578 0.0111053 C2329.49320638 0.01066275 2333.80873698 0.01021564 2338.12426758 0.00976562 C2339.19426161 0.00965623 2340.26425565 0.00954684 2341.36667375 0.00943414 C2376.06131094 0.0058035 2410.75592724 -0.01011861 2445.45055643 -0.03342474 C2482.15644435 -0.05803674 2518.86232033 -0.07174134 2555.56821674 -0.07293582 C2559.5996815 -0.07310727 2563.63114625 -0.07332269 2567.66261101 -0.07357025 C2568.65522639 -0.07362602 2569.64784177 -0.07368179 2570.6705364 -0.07373925 C2586.62274801 -0.07488838 2602.5749381 -0.08589847 2618.52714245 -0.10045731 C2634.56840046 -0.11484402 2650.609631 -0.11804698 2666.6508937 -0.11001733 C2676.17158057 -0.10557162 2685.69217855 -0.10937923 2695.21285369 -0.12525584 C2701.58414132 -0.13504516 2707.95536705 -0.13379009 2714.32665419 -0.12381961 C2717.94905981 -0.11845601 2721.5712954 -0.11762446 2725.19368655 -0.13032833 C2744.30979619 -0.19318316 2762.94032434 0.40609581 2781.375 6 C2782.2422168 6.25676514 2783.10943359 6.51353027 2784.00292969 6.77807617 C2792.19908508 9.28564119 2799.93615504 12.48193149 2807.625 16.25 C2808.31013672 16.57838867 2808.99527344 16.90677734 2809.70117188 17.24511719 C2825.02950937 24.65592498 2838.34551993 34.46726265 2850.625 46.25 C2851.56601563 47.12785156 2852.50703125 48.00570312 2853.4765625 48.91015625 C2866.09683762 60.89972577 2875.69572646 74.81112875 2883.625 90.25 C2883.97546387 90.92111816 2884.32592773 91.59223633 2884.68701172 92.28369141 C2892.81557931 108.00491825 2897.80444596 124.79909014 2900.625 142.25 C2900.80933594 143.384375 2900.99367188 144.51875 2901.18359375 145.6875 C2905.01855559 177.89347098 2899.96538227 211.17005466 2885.625 240.25 C2885.15707031 241.20447021 2885.15707031 241.20447021 2884.6796875 242.17822266 C2864.86373755 282.08198773 2829.74952176 312.15807957 2787.6875 326.5625 C2771.40104243 331.89021714 2754.64954594 334.39142647 2737.55029297 334.40771484 C2736.37338394 334.41279556 2735.19647491 334.41787628 2733.98390198 334.42311096 C2731.44021205 334.43376962 2728.89651301 334.44240725 2726.35280991 334.44923019 C2722.31532633 334.46108984 2718.27794605 334.48028611 2714.24050903 334.50234985 C2702.76486943 334.56392511 2691.28923608 334.61815868 2679.81347656 334.65136719 C2673.46268749 334.66982436 2667.11203575 334.69889487 2660.76134789 334.7393719 C2657.41247309 334.76025338 2654.06392395 334.77417393 2650.71496201 334.77817917 C2625.50023532 334.81152557 2602.84095046 336.60574108 2583.5 354.8125 C2567.67038319 371.47128721 2560.86041716 392.25774498 2561.3203125 414.94921875 C2562.33533973 438.45003509 2577.18332248 455.13813164 2593.11339188 470.99566078 C2594.14874172 472.03371062 2595.18365529 473.07219573 2596.21817726 474.11107063 C2599.04538265 476.94766248 2601.87870165 479.7780758 2604.71311994 482.60745777 C2607.80212625 485.69318037 2610.88532715 488.784695 2613.96929526 491.87545145 C2619.36966098 497.28609959 2624.77372675 502.69302979 2630.18026543 508.09750938 C2638.22011683 516.13430631 2646.25426199 524.17678973 2654.2873515 532.22034471 C2669.46980082 547.42212122 2684.6590901 562.61705101 2699.85063252 577.80973984 C2711.58134425 589.54137103 2723.31045507 601.27460049 2735.03844452 613.00895309 C2738.41560844 616.38791212 2741.7927801 619.76686341 2745.16995406 623.14581239 C2746.00954541 623.98584583 2746.84913675 624.82587927 2747.71417026 625.69136827 C2771.3248247 649.3143282 2794.93768346 672.93508288 2818.55493546 696.55144691 C2819.44507821 697.44155851 2820.33522096 698.33167011 2821.25233774 699.24875478 C2825.7638642 703.76011503 2830.2754066 708.27145935 2834.78695253 712.78280015 C2835.68294852 713.67875626 2836.57894451 714.57471236 2837.5020919 715.49781865 C2839.31401237 717.30965824 2841.12593419 719.12149647 2842.93785737 720.93333334 C2871.13580628 749.13005642 2899.32561995 777.33489072 2927.50927734 805.54589844 C2959.17884173 837.24618338 2990.85515248 868.93970616 3022.54101062 900.62370527 C3025.91946108 904.00200647 3029.29788561 907.38033359 3032.67629242 910.75867844 C3033.50813716 911.59049986 3034.33998189 912.42232129 3035.19703405 913.27934943 C3048.58208473 926.66433857 3061.96070906 940.05573318 3075.33711265 953.4493632 C3088.779062 966.90826524 3102.22848223 980.35966585 3115.68548498 993.80351688 C3123.67869632 1001.78933729 3131.66633367 1009.78063889 3139.64603895 1017.77995553 C3144.97931264 1023.12522753 3150.31984577 1028.46317286 3155.66629282 1033.79526841 C3158.71055109 1036.83176273 3161.75161144 1039.87127536 3164.78386822 1042.91975851 C3167.54809498 1045.69864711 3170.32153788 1048.467992 3173.1022943 1051.23033686 C3174.09491703 1052.21954616 3175.0842808 1053.21204074 3176.06974082 1054.2083858 C3192.1593266 1070.46357871 3210.90336082 1081.23482501 3234.16015625 1082.28125 C3252.87974459 1082.11241493 3269.71938104 1075.3083871 3283.4296875 1062.60546875 C3297.64877993 1047.3490404 3302.49913384 1029.84586656 3303.22070312 1009.48730469 C3304.07933119 987.63912323 3308.57138817 966.19730342 3317.625 946.25 C3317.91745605 945.60466309 3318.20991211 944.95932617 3318.51123047 944.29443359 C3337.0998583 903.95839046 3371.05370765 872.64253142 3412.5546875 857.03515625 C3456.38075133 841.2467289 3503.58353915 844.45690762 3545.53613281 864.14697266 C3561.76826995 871.95916346 3575.79415332 882.70114995 3588.625 895.25 C3589.78515625 896.31734375 3589.78515625 896.31734375 3590.96875 897.40625 C3602.97277424 908.71438878 3612.18731647 922.62585822 3619.625 937.25 C3619.97401367 937.92498535 3620.32302734 938.5999707 3620.68261719 939.29541016 C3626.28584685 950.23074547 3630.51541206 961.36342473 3633.625 973.25 C3633.83672852 974.02794922 3634.04845703 974.80589844 3634.26660156 975.60742188 C3654.01181539 1051.77200264 3623.09377401 1149.46861262 3585.4140625 1214.90625 C3580.13067216 1223.88578848 3574.57958816 1232.69982214 3568.625 1241.25 C3568.06546631 1242.05630859 3568.06546631 1242.05630859 3567.49462891 1242.87890625 C3548.6979435 1269.87848055 3526.77248315 1295.94081691 3501.625 1317.25 C3500.61090881 1318.1381022 3499.5979921 1319.0275464 3498.5859375 1319.91796875 C3477.21621859 1338.63191334 3453.50844657 1354.58789156 3428.625 1368.25 C3427.83158203 1368.69118164 3427.03816406 1369.13236328 3426.22070312 1369.58691406 C3378.53341847 1395.97236074 3323.97957492 1412.24999177 3269.625 1416.25 C3268.47966797 1416.33612549 3267.33433594 1416.42225098 3266.15429688 1416.51098633 C3256.01307411 1417.21398591 3245.91412668 1417.45179945 3235.75 1417.4375 C3234.9465213 1417.43689575 3234.1430426 1417.4362915 3233.31521606 1417.43566895 C3157.34410776 1417.28180721 3081.88026598 1395.97918012 3017.625 1355.25 C3016.96242188 1354.83041016 3016.29984375 1354.41082031 3015.6171875 1353.97851562 C2999.80308154 1343.87505904 2984.72518984 1332.6281839 2970.625 1320.25 C2969.8928125 1319.61707031 2969.160625 1318.98414063 2968.40625 1318.33203125 C2966.46734811 1316.65088021 2964.54537089 1314.95228139 2962.625 1313.25 C2961.90664511 1312.61647178 2961.18829022 1311.98294356 2960.44816701 1311.33021751 C2953.99429525 1305.587798 2947.83074957 1299.59690424 2941.73130512 1293.48214626 C2940.66461436 1292.41650096 2939.59770493 1291.35107449 2938.53059921 1290.28584471 C2935.61264325 1287.37176234 2932.69778177 1284.45460217 2929.78343918 1281.53690673 C2926.60707484 1278.35799662 2923.42780258 1275.18199693 2920.24890727 1272.00561816 C2914.68242556 1266.44274281 2909.11779995 1260.87801622 2903.55439758 1255.31206131 C2895.28146098 1247.03533933 2887.00566466 1238.76148114 2878.7293076 1230.48817964 C2863.94766092 1215.71179715 2849.16887452 1200.93255654 2834.39130428 1186.1520974 C2821.46044858 1173.21872622 2808.52866394 1160.28628478 2795.59595299 1147.35476875 C2794.73812125 1146.4970134 2793.88028952 1145.63925806 2792.99646288 1144.75551012 C2789.51427168 1141.27363026 2786.03207695 1137.79175392 2782.5498764 1134.3098834 C2749.88600592 1101.64907178 2717.22505215 1068.98534482 2684.56540248 1036.32031259 C2655.54483063 1007.2949943 2626.52167357 978.27226342 2597.49633789 949.25170898 C2564.88806241 916.64878699 2532.28140168 884.04425145 2499.67734832 851.43710715 C2496.2024353 847.96187341 2492.72751834 844.48664361 2489.25259972 841.01141548 C2487.96917522 839.72787237 2487.96917522 839.72787237 2486.65982295 838.41839909 C2473.73454724 825.49198552 2460.80803736 812.56680701 2447.88092995 799.64222527 C2433.18501327 784.94916553 2418.49088012 770.25432477 2403.79910711 755.55712169 C2395.57483449 747.32990974 2387.34918702 739.10407804 2379.12155994 730.88022069 C2373.6281551 725.3890555 2368.13656621 719.89607871 2362.64645978 714.40161576 C2359.51702531 711.26979928 2356.3868069 708.13877752 2353.25438593 705.00994789 C2350.4034373 702.16223462 2347.55480893 699.3122214 2344.70799431 696.46037561 C2343.68548184 695.43685802 2342.66213664 694.41417147 2341.63784608 693.39243332 C2336.08144496 687.84889398 2330.70811442 682.23115206 2325.625 676.25 C2324.3565625 674.80367187 2324.3565625 674.80367187 2323.0625 673.328125 C2299.95914167 646.52230539 2281.50154984 616.79675759 2265.625 585.25 C2265.2542334 584.52312988 2264.8834668 583.79625977 2264.50146484 583.04736328 C2226.65982619 508.46802666 2216.05861952 416.00047326 2232.625 334.25 C2208.76298044 334.31065359 2184.90106716 334.38823727 2161.03916836 334.48571491 C2149.95849499 334.53058995 2138.87785317 334.57002359 2127.79711914 334.59643555 C2118.13382735 334.61948294 2108.47063608 334.65295579 2098.80742413 334.69870156 C2093.69566669 334.72254315 2088.58400826 334.74133113 2083.47219658 334.74761391 C2078.64997611 334.75370601 2073.82800866 334.773853 2069.00588226 334.80427551 C2067.24645057 334.81299013 2065.48698571 334.81679215 2063.72753334 334.81500816 C2041.91764336 334.79989117 2021.52323314 338.87745206 2005 354.3125 C1990.1998877 369.93336987 1982.06707111 390.66497676 1982.203125 412.08496094 C1983.09082011 441.29713817 2003.66178194 460.47779973 2023.06155396 479.79335022 C2024.17029815 480.90109529 2025.2788164 482.00906653 2026.38713157 483.11724085 C2029.39828331 486.12676502 2032.41252353 489.13317839 2035.42731166 492.13905919 C2038.69163415 495.39488266 2041.95297881 498.65368666 2045.21466064 501.91215515 C2050.85674663 507.54796813 2056.50055436 513.182052 2062.14545059 518.81505013 C2070.3176489 526.97020517 2078.48607753 535.12912812 2086.65342258 543.28914338 C2099.92152125 556.5453185 2113.19112696 569.79998373 2126.46240234 583.05297852 C2127.25530579 583.84479184 2128.04820924 584.63660517 2128.86514007 585.45241284 C2140.12349237 596.69514651 2151.38333359 607.93638785 2162.6437646 619.1770395 C2163.43727443 619.96915601 2164.23078426 620.76127253 2165.04833984 621.57739258 C2166.23714419 622.76410663 2166.23714419 622.76410663 2167.44996478 623.97479469 C2180.67853024 637.18030193 2193.90321534 650.38968731 2207.12474525 663.6022386 C2215.268335 671.7399876 2223.41515789 679.87447274 2231.56621836 688.00473892 C2237.15139296 693.57617403 2242.73292407 699.15124193 2248.31163682 704.72914726 C2251.52640151 707.94321023 2254.74276345 711.15563015 2257.96358109 714.36362839 C2260.9175356 717.30588762 2263.86674256 720.25282355 2266.81239961 723.2033891 C2267.87305482 724.26419436 2268.93537818 725.32333519 2269.99962486 726.38053728 C2276.66251285 733.00162851 2282.77250577 739.89973092 2288.625 747.25 C2289.55990343 748.35172303 2290.50135768 749.44796858 2291.453125 750.53515625 C2308.25448294 769.80251995 2321.85443553 791.49265873 2334.25097656 813.78076172 C2335.1070415 815.31918404 2335.96758953 816.85513091 2336.83496094 818.38720703 C2366.94682788 871.65099942 2382.19087634 935.41925472 2383.625 996.25 C2383.65787109 997.53825684 2383.65787109 997.53825684 2383.69140625 998.85253906 C2385.05507293 1061.37665645 2371.58419298 1123.46360824 2345.625 1180.25 C2345.25938965 1181.06484863 2344.8937793 1181.87969727 2344.51708984 1182.71923828 C2329.77841479 1215.54598094 2309.72215785 1245.7255804 2286.625 1273.25 C2286.20614029 1273.75256821 2285.78728058 1274.25513641 2285.35572815 1274.77293396 C2278.196309 1283.34698493 2270.71554978 1291.47865439 2262.78833008 1299.34741211 C2261.05245269 1301.07248477 2259.3276491 1302.80811991 2257.60351562 1304.54492188 C2250.91642211 1311.23991645 2244.04230244 1317.36465727 2236.625 1323.25 C2235.52300947 1324.18458811 2234.42668788 1325.1259654 2233.33984375 1326.078125 C2218.87972327 1338.68751276 2203.02954021 1349.346482 2186.625 1359.25 C2185.41384521 1359.98234863 2185.41384521 1359.98234863 2184.17822266 1360.72949219 C2119.73629538 1399.36154264 2046.13295864 1417.52681644 1971.3125 1417.4375 C1970.29588287 1417.43656342 1969.27926575 1417.43562683 1968.23184204 1417.43466187 C1870.26806614 1417.23949 1775.40877367 1384.16312388 1687.31619263 1307.81980896 C1685.68796911 1306.30844956 1684.0530904 1304.80460469 1682.41723633 1303.30151367 C1669.87359091 1291.71475793 1657.85957963 1279.6020882 1645.81182861 1267.50549316 C1642.96369214 1264.64694812 1640.1125619 1261.79139209 1637.26171875 1258.93554688 C1631.71329213 1253.3765391 1626.16806825 1247.81435136 1620.625 1242.25 C1617.7616002 1245.81792567 1614.95853251 1249.42230721 1612.1875 1253.0625 C1603.60464229 1264.25153458 1594.80339137 1275.20530446 1585.17578125 1285.515625 C1582.76350561 1288.10152538 1580.40851112 1290.72906102 1578.0625 1293.375 C1571.75526022 1300.39180425 1565.15458956 1307.11293455 1557.97265625 1313.23828125 C1556.12652688 1314.82023903 1554.30752912 1316.42198426 1552.49609375 1318.04296875 C1488.35278419 1375.08692171 1404.13751045 1409.87757442 1318.625 1416.25 C1317.48184326 1416.33612549 1316.33868652 1416.42225098 1315.16088867 1416.51098633 C1305.03824808 1417.21222162 1294.95797506 1417.45180601 1284.8125 1417.4375 C1284.01063263 1417.43689575 1283.20876526 1417.4362915 1282.38259888 1417.43566895 C1189.93054922 1417.24820667 1094.87473213 1385.98828 1024.58203125 1324.8046875 C1021.73034634 1322.34101256 1018.81824048 1319.97796404 1015.875 1317.625 C1011.63713475 1314.18058122 1007.76078461 1310.53232378 1003.98828125 1306.5859375 C1002.01838643 1304.63883486 1000.01601853 1302.84088266 997.91797123 1301.0372774 C993.98322078 1297.60535594 990.25548806 1294.01786518 986.57417899 1290.31762415 C985.90794663 1289.65204872 985.24171427 1288.98647329 984.55529304 1288.30072891 C982.330235 1286.07664566 980.1087723 1283.84900661 977.88728046 1281.62136173 C976.2670654 1280.00036889 974.64662839 1278.37959787 973.02598992 1276.75902835 C968.56175634 1272.29370876 964.1006654 1267.82526091 959.640059 1263.35631838 C955.29136656 1259.00000619 950.93977541 1254.64659043 946.5884915 1250.29286703 C937.58095224 1241.28012076 928.57574874 1232.26504403 919.57179832 1223.24871254 C910.44767264 1214.11207256 901.32242237 1204.97655789 892.19578552 1195.8424263 C891.61924826 1195.26541532 891.04271099 1194.68840435 890.44870289 1194.09390819 C887.50887481 1191.15168017 884.56902321 1188.20947566 881.62915907 1185.26728368 C875.60199889 1179.23534422 869.5749718 1173.2032718 863.54798162 1167.17116249 C862.63750931 1166.25991832 862.63750931 1166.25991832 861.70864361 1165.33026518 C852.26274612 1155.87631758 842.81745507 1146.42176436 833.37251914 1136.96685612 C832.73447375 1136.32813799 832.09642837 1135.68941985 831.43904828 1135.03134662 C828.84782768 1132.43739256 826.256609 1129.84343659 823.66539119 1127.24947974 C791.31571822 1094.86564165 758.96035269 1062.4874963 726.60270204 1030.11162959 C720.53507124 1024.04057909 714.46749114 1017.96947793 708.39990567 1011.89838213 C705.00234627 1008.49885777 701.60478438 1005.09933589 698.20722219 1001.6998143 C697.53242186 1001.02462471 696.85762153 1000.34943512 696.1623727 999.65378524 C692.05971704 995.54876424 687.95705603 991.44374858 683.85439138 987.33873656 C652.99277113 956.45945488 622.13176747 925.57955704 591.27160862 894.69881485 C589.13301063 892.55879152 586.99440961 890.41877121 584.85580834 888.27875116 C551.91584185 855.31688705 518.97780412 822.35309791 486.04455566 789.38452148 C485.33615398 788.67536043 484.62775229 787.96619938 483.89788389 787.2355486 C472.4756379 775.80104428 461.05350601 764.36642598 449.63139579 752.93178603 C416.73067131 719.99497225 383.82847272 687.05963575 350.91780376 654.13275814 C350.24104751 653.45566709 349.56429125 652.77857604 348.86702723 652.08096707 C334.67796111 637.88492213 320.48836013 623.68941195 306.29807173 609.49458879 C299.65303547 602.84742658 293.00811403 596.2001496 286.36325645 589.55280876 C285.70903473 588.89834686 285.05481301 588.24388497 284.38076639 587.56959089 C263.30585397 566.48682859 242.23912722 545.39590931 221.17676095 524.30061357 C199.96422416 503.0549699 178.74403076 481.81700711 157.51307246 460.5897713 C154.57904297 457.65625106 151.6451039 454.7226404 148.71121979 451.78897476 C148.13609922 451.21390327 147.56097865 450.63883178 146.96843019 450.04633388 C137.8639285 440.94214363 128.76787528 431.82956064 119.67532499 422.71343588 C110.73333781 413.74860894 101.78247177 404.79272942 92.82210601 395.8462711 C88.02966794 391.06078041 83.24156635 386.27114593 78.46427033 381.4705332 C74.1171721 377.10237065 69.75869403 372.74590813 65.39090048 368.39844193 C63.82362428 366.83444059 62.2605195 365.26624486 60.70217157 363.69334734 C43.76966601 346.61262339 26.26079414 335.56067893 1.4375 334.9375 C-18.53915924 335.28192516 -35.89645315 341.44538164 -50.6171875 355.37109375 C-65.29803679 370.93736391 -73.29652034 392.29891477 -72.71875 413.65234375 C-70.50389413 436.83282391 -58.24600063 452.71737515 -42.17185974 468.68692017 C-41.05169461 469.80724167 -39.93197218 470.92800594 -38.81265026 472.0491699 C-35.75887994 475.10545454 -32.69895653 478.1555111 -29.63793814 481.20453405 C-26.328869 484.5028568 -23.02564571 487.80702522 -19.72171021 491.11048889 C-14.00268084 496.82716191 -8.28006565 502.54022462 -2.55502129 508.25087357 C5.73044155 516.51560234 14.00985087 524.78637422 22.28772723 533.05870073 C35.73066848 546.4923966 49.17770243 559.92198756 62.62768555 573.34863281 C63.43178196 574.15133592 64.23587838 574.95403902 65.06434136 575.78106646 C65.86944276 576.58477233 66.67454416 577.3884782 67.50404257 578.21653879 C78.9212972 589.61402076 90.3375807 601.01247428 101.75268555 612.41210938 C102.55610174 613.21443472 103.35951793 614.01676006 104.18728007 614.84339829 C117.58782699 628.225916 130.98633924 641.61046964 144.38381237 654.99606454 C152.64135191 663.24602073 160.90096182 671.49389434 169.16327714 679.73906766 C174.82329893 685.38751099 180.481618 691.03765604 186.13860936 696.68913437 C189.40093409 699.94813215 192.66409783 703.20627857 195.92949104 706.46220207 C198.92136417 709.4454143 201.91089792 712.43095061 204.89863216 715.41830783 C205.97703307 716.49574684 207.05628351 717.57233642 208.13649041 718.64796479 C213.85105962 724.33924898 219.39044011 730.110716 224.625 736.25 C226.0382355 737.7948126 227.45440409 739.33695325 228.875 740.875 C234.45811892 747.07951158 239.57266125 753.61361573 244.625 760.25 C245.17349609 760.96865234 245.72199219 761.68730469 246.28710938 762.42773438 C305.53947221 840.42660749 334.55589714 937.46076979 325.13720703 1064.05761719 C313.66266362 1147.93972611 275.75561961 1226.03118459 218.625 1288.25 C218.11066406 1288.81477051 217.59632813 1289.37954102 217.06640625 1289.96142578 C209.27107693 1298.51063366 201.27679834 1306.56759083 192.625 1314.25 C191.80773437 1315.00539063 190.99046875 1315.76078125 190.1484375 1316.5390625 C122.37530191 1379.0139725 29.90109396 1412.98895168 -76.42822266 1417.41113281 C-77.85299807 1417.41578046 -79.27777229 1417.42080759 -80.70254517 1417.42617798 C-84.52113452 1417.43911367 -88.33970647 1417.44570893 -92.15831423 1417.45018864 C-94.55865354 1417.45314916 -96.9589884 1417.45725896 -99.35932541 1417.46169281 C-106.91237409 1417.47531579 -114.46541222 1417.48500867 -122.01847231 1417.4888947 C-130.65849809 1417.49336809 -139.29836511 1417.51090465 -147.93834269 1417.5398953 C-154.67186527 1417.56168459 -161.40534374 1417.57160801 -168.13890111 1417.57293582 C-172.13565893 1417.57397126 -176.13226651 1417.57960405 -180.12898636 1417.59775543 C-209.7482436 1417.72449413 -238.05370044 1415.65049523 -265.375 1403.25 C-266.02033691 1402.95754395 -266.66567383 1402.66508789 -267.33056641 1402.36376953 C-307.56216893 1383.82327254 -339.19697203 1349.78543795 -354.67529297 1308.28930664 C-369.88003089 1265.45778754 -367.79756759 1218.37304152 -348.42724609 1177.23730469 C-340.47609304 1160.7810721 -330.13238136 1146.3032047 -317.375 1133.25 C-316.52679688 1132.33992188 -315.67859375 1131.42984375 -314.8046875 1130.4921875 C-288.70225192 1103.14306843 -249.7458553 1085.16111576 -211.94331741 1083.05918884 C-208.41816439 1082.98187255 -204.89757558 1082.96004093 -201.37158203 1082.96289062 C-200.03588452 1082.95684468 -198.70019077 1082.94991508 -197.36450195 1082.94218445 C-194.51858555 1082.92745183 -191.67273738 1082.91858611 -188.82678604 1082.91447449 C-184.30973807 1082.90767356 -179.79283388 1082.88581968 -175.27584839 1082.86193848 C-165.68393295 1082.81327713 -156.09198702 1082.78076895 -146.5 1082.75 C-136.1458113 1082.71676861 -125.79168006 1082.68056598 -115.43757904 1082.62586927 C-111.6903114 1082.60653202 -107.94311981 1082.59117759 -104.1958046 1082.58552551 C-74.74230272 1082.53924034 -49.61135078 1082.09895791 -27.375 1060.25 C-26.82070313 1059.70859375 -26.26640625 1059.1671875 -25.6953125 1058.609375 C-12.81589256 1044.82491474 -5.57789423 1023.38188393 -6.125 1004.74609375 C-8.3889226 982.14224151 -18.88756671 966.06729077 -34.69839478 950.45231628 C-35.81984927 949.32983072 -36.94041985 948.20646149 -38.06019342 947.08229905 C-41.10727619 944.02828058 -44.16654677 940.98674405 -47.22812748 937.94726908 C-50.54015773 934.65470729 -53.8404717 931.35043632 -57.14225769 928.04760742 C-62.85528652 922.33588719 -68.57550252 916.63144924 -74.30070877 910.93193626 C-82.58634999 902.68336747 -90.86031967 894.42317011 -99.13146929 886.16007308 C-112.56440098 872.7407515 -126.00586528 859.33001151 -139.453125 845.92504883 C-152.49134349 832.92779029 -165.52678574 819.92776067 -178.55761719 806.9230957 C-179.76234739 805.72078995 -179.76234739 805.72078995 -180.99141558 804.49419519 C-189.76301076 795.74008706 -198.53378927 786.98516109 -207.30393028 778.22959614 C-208.07504148 777.45977277 -208.84615269 776.6899494 -209.64063089 775.89679805 C-215.9717308 769.57626182 -215.9717308 769.57626182 -218.8890361 766.66366342 C-227.9037522 757.66357169 -236.92094834 748.66598095 -245.94263063 739.67287187 C-251.59923713 734.03413522 -257.25428466 728.39383869 -262.90812255 722.75232603 C-266.79288097 718.87625869 -270.67971026 715.00228505 -274.56820712 711.12996836 C-276.93256283 708.77437515 -279.29479513 706.41666162 -281.65641944 704.05833033 C-282.73410675 702.98298787 -283.81265389 701.90850623 -284.89216919 700.83499887 C-290.08964433 695.66563093 -295.20938958 690.47354131 -299.96893251 684.89213544 C-302.10718709 682.39488431 -304.37427959 680.02070547 -306.625 677.625 C-312.61869533 671.13898389 -318.0427694 664.28404316 -323.375 657.25 C-323.90996094 656.5502002 -324.44492187 655.85040039 -324.99609375 655.12939453 C-350.18846344 622.07531825 -370.71194257 585.14682383 -384.45214844 545.88232422 C-385.27340465 543.53978864 -386.12036568 541.20882238 -386.9765625 538.87890625 C-401.63433083 498.05584131 -407.59964658 453.9966834 -407.625 410.8125 C-407.62567474 409.77498596 -407.62634949 408.73747192 -407.62704468 407.66851807 C-407.53109555 314.3503648 -374.6776796 221.47313048 -315.375 149.25 C-314.93091797 148.70827148 -314.48683594 148.16654297 -314.02929688 147.60839844 C-299.20157677 129.61245324 -283.11327838 111.41406027 -264.69140625 97.0703125 C-262.41887715 95.28448019 -260.3102924 93.39761111 -258.1875 91.4375 C-198.4510477 38.02236541 -116.10333355 8.94835506 -37.375 1.25 C-36.46508301 1.15428711 -35.55516602 1.05857422 -34.61767578 0.95996094 C-23.10936266 -0.10445788 -11.54749342 0.00617021 0 0 Z " fill="#F9C05D" transform="translate(419.375,11.75)"/>
<path d="M0 0 C0.72199585 0.00060425 1.4439917 0.0012085 2.18786621 0.00183105 C14.21420363 0.02902346 26.08539477 0.45402755 38 2.1875 C38.82226074 2.30577148 39.64452148 2.42404297 40.49169922 2.54589844 C78.35955461 8.27748602 116.96658623 23.70439445 148 46.1875 C149.05316406 46.94804687 150.10632813 47.70859375 151.19140625 48.4921875 C154.16087157 50.6842066 157.08903979 52.91848525 160 55.1875 C160.87785156 55.87070313 161.75570313 56.55390625 162.66015625 57.2578125 C176.93444965 68.65202019 189.74675867 81.78850491 202.62749577 94.70032787 C204.25897837 96.33198146 205.89068283 97.96341325 207.52258649 99.59464571 C211.98547011 104.05695702 216.44523489 108.52237379 220.90448141 112.9883193 C225.26177481 117.35164872 229.62198478 121.71206285 233.9818687 126.07280348 C242.99954714 135.09241475 252.01488297 144.11436411 261.02893257 153.13760185 C270.15657632 162.27452237 279.28534403 171.41031779 288.41547775 180.54475021 C289.28226402 181.41194561 289.28226402 181.41194561 290.16656113 182.2966601 C293.1133922 185.24486867 296.06024455 188.19305596 299.00710696 191.14123321 C305.04691291 197.18374643 311.08657105 203.2264074 317.12617958 209.26911795 C318.03834215 210.1817485 318.03834215 210.1817485 318.96893225 211.11281602 C332.31110906 224.46191069 345.65184125 237.81244878 358.99250447 251.16305605 C390.05351374 282.24719983 421.11894275 313.32692329 452.18600958 344.40501274 C464.38693246 356.61027006 476.58771399 368.81566867 488.78850749 381.02105532 C490.84368128 383.07700212 492.8988564 385.1329476 494.95403169 387.18889292 C526.53015923 418.77686858 558.10523086 450.36589962 589.67970205 481.95553093 C591.81963043 484.09648615 593.95956069 486.23743948 596.09949117 488.37839259 C629.06538117 521.36006126 662.03019295 554.34280699 694.99267578 587.32788086 C695.70191759 588.03760824 696.4111594 588.74733561 697.14189339 589.47856988 C705.01024996 597.35231613 712.87858457 605.22608432 720.74691039 613.0998613 C721.45380067 613.80724131 722.16069096 614.51462131 722.88900216 615.24343708 C726.45594778 618.81285437 730.02289204 622.38227302 733.58983469 625.95169328 C765.82251298 658.20673692 798.05624595 690.46072491 830.29471493 722.70998096 C830.97237968 723.38787344 831.65004444 724.06576592 832.34824448 724.7642006 C846.55652955 738.97723777 860.76512568 753.18996392 874.97412955 767.40228251 C881.62783962 774.05754746 888.28147703 780.71288506 894.93507195 787.36826515 C895.59013278 788.02349931 896.24519362 788.67873347 896.92010479 789.35382321 C918.0134949 810.4528685 939.10188356 831.55690435 960.18756763 852.66365059 C981.42174336 873.91900854 1002.66047599 895.16980116 1023.90563162 916.41418481 C1026.84244315 919.35089323 1029.77919994 922.28765639 1032.71592331 925.22445297 C1033.29158696 925.80012731 1033.86725062 926.37580165 1034.46035862 926.96892067 C1043.56784736 936.07685883 1052.67027266 945.18983997 1061.77058177 954.30495116 C1070.72325368 963.27197896 1079.68127394 972.23363413 1088.64497045 981.18964172 C1093.43776407 985.97861899 1098.22799131 990.77009307 1103.0116883 995.56815907 C1107.36680714 999.93626865 1111.72882978 1004.29735985 1116.09637003 1008.65304863 C1117.66212528 1010.21696013 1119.22538852 1011.78337178 1120.78578064 1013.35263438 C1129.72919487 1022.34375284 1138.81846195 1030.62063215 1149 1038.1875 C1150.18711927 1039.08104522 1151.3737515 1039.97523789 1152.55988428 1040.87009219 C1198.99041302 1075.73854409 1258.20868435 1087.79847354 1315.11206055 1079.8918457 C1324.57133768 1078.5092116 1333.79948654 1076.79721183 1343 1074.1875 C1344.72283203 1073.70990234 1344.72283203 1073.70990234 1346.48046875 1073.22265625 C1353.89458227 1071.05839568 1360.96152536 1068.35791424 1368 1065.1875 C1368.76376953 1064.84444824 1369.52753906 1064.50139648 1370.31445312 1064.14794922 C1392.96104129 1053.89789138 1413.54913641 1041.01852193 1431.47412109 1023.66210938 C1432.53057522 1022.64115211 1433.59389417 1021.62726855 1434.66259766 1020.61914062 C1458.85660224 997.78251042 1477.53511557 967.75484117 1488 936.1875 C1488.23444824 935.50260498 1488.46889648 934.81770996 1488.71044922 934.11206055 C1492.97778727 921.56829629 1496.62694321 908.7025823 1498.8125 895.625 C1498.92400391 894.96121338 1499.03550781 894.29742676 1499.15039062 893.61352539 C1502.71130032 870.4761177 1502.32273534 846.1669228 1498 823.1875 C1497.83371094 822.29015137 1497.66742187 821.39280273 1497.49609375 820.46826172 C1491.29448907 788.08784618 1477.38880834 757.70985816 1457.5625 731.4375 C1457.07346191 730.78861816 1456.58442383 730.13973633 1456.08056641 729.47119141 C1447.66315959 718.59995171 1437.83783934 708.87755619 1428.11592197 699.18596077 C1426.95293453 698.02284014 1425.79016828 696.85949831 1424.62760034 695.69595838 C1421.45261163 692.51957432 1418.27453156 689.34629962 1415.09591251 686.17354904 C1411.63071919 682.7136241 1408.1684772 679.25074788 1404.70585722 675.78824794 C1398.64359448 669.72698978 1392.57949245 663.66757675 1386.51416969 657.60938072 C1377.49507195 648.6008503 1368.47888666 639.58940917 1359.46333169 630.57733337 C1344.29470894 615.41468788 1329.12389911 600.25423251 1313.9519825 585.09488297 C1292.76132635 563.92167663 1271.57466521 542.7444752 1250.38899555 521.56627968 C1241.70379707 512.88415424 1233.01845523 504.20217219 1224.33310283 495.52020071 C1223.35820294 494.5456803 1222.38330338 493.57115955 1221.40840417 492.59663846 C1198.44712992 469.64427589 1175.4845781 446.69319163 1152.52151865 423.7426151 C1150.99839849 422.22032253 1149.47527966 420.69802864 1147.95216102 419.17573456 C1124.48152163 395.71781623 1101.01023062 372.26055013 1077.5378418 348.80438232 C1076.51723744 347.78448227 1075.49663311 346.76458217 1074.47602883 345.74468204 C1069.88961889 341.16143781 1065.30320468 336.57819786 1060.71679001 331.99495836 C1058.68230174 329.96187841 1056.64781388 327.92879805 1054.61332597 325.89571772 C1053.08902292 324.37246991 1051.56471892 322.84922305 1050.04041487 321.32597623 C1027.08247014 298.38393778 1004.12527749 275.44114778 981.17115688 252.49528313 C980.44770274 251.77209027 980.44770274 251.77209027 979.70963336 251.03428745 C969.59846045 240.92675288 959.48748643 230.81901937 949.3767801 220.71101807 C944.6425783 215.97808568 939.90832495 211.24520485 935.17403984 206.5123558 C934.24229446 205.58089177 933.31054908 204.64942774 932.350569 203.68973753 C917.33718452 188.68111528 902.32010065 173.67620101 887.30154788 158.67275075 C872.2223889 143.60864049 857.14674358 128.54102156 842.07475127 113.46974082 C833.11384182 104.50948657 824.15011305 95.5520739 815.18239847 86.59863035 C809.19906336 80.62427542 803.21933342 74.64632849 797.2425649 68.66540436 C793.83309716 65.25377782 790.42203683 61.84378511 787.00657297 58.43816055 C783.90175272 55.34222571 780.80154299 52.2417518 777.70500003 49.13753866 C776.58887971 48.02027961 775.47106633 46.90470879 774.35139248 45.79101098 C772.83368309 44.28091795 771.3222685 42.76478707 769.8122564 41.24700272 C768.97304608 40.40832811 768.13383577 39.5696535 767.26919485 38.70556451 C761.01108538 31.7611087 759.5044685 26.44097432 759.59375 17.30078125 C760.25517916 12.23194429 762.47439351 8.81296027 766 5.1875 C768.2951667 3.47681675 770.37410834 2.39945 773 1.1875 C773.66 0.8575 774.32 0.5275 775 0.1875 C777.3203125 -0.05078125 777.3203125 -0.05078125 780.125 -0.125 C781.03507812 -0.16238281 781.94515625 -0.19976562 782.8828125 -0.23828125 C790.7873835 0.84141579 796.12420037 5.73219457 801.53698456 11.23114258 C802.25586917 11.94528754 802.97475378 12.65943249 803.71542277 13.39521821 C806.12714806 15.79592509 808.52432139 18.21065263 810.92184639 20.62553501 C812.67073424 22.37237462 814.42050084 24.1183348 816.17106664 25.86349288 C819.98982964 29.67450375 823.80227413 33.49167538 827.60934843 37.31435204 C833.30880936 43.03708644 839.01982699 48.7481844 844.73316994 54.45705544 C854.47022251 64.18715046 864.19779239 73.92667559 873.92027473 83.67132759 C883.77461855 93.54805664 893.63333014 103.4203952 903.4974308 113.28738022 C904.12022309 113.91035918 904.74301538 114.53333814 905.38468017 115.17519526 C908.56030537 118.35172873 911.73600516 121.52818763 914.91173382 124.70461767 C937.9068426 147.70506711 960.89247657 170.71496547 983.87335587 193.72963142 C1006.64232638 216.53198131 1029.41609384 239.32952461 1052.19607162 262.12087822 C1052.90351937 262.82868184 1053.61096711 263.53648546 1054.33985266 264.26573768 C1062.24463786 272.1744792 1070.14956784 280.08307598 1078.05455349 287.99161714 C1092.67619588 302.61985281 1107.2971678 317.24875861 1121.91795158 331.87785244 C1122.64952092 332.60983593 1123.38109025 333.34181942 1124.13482835 334.09598423 C1158.96026682 368.94121507 1193.77939954 403.79274459 1228.59729187 438.64551544 C1230.90780395 440.95834164 1233.2183185 443.27116538 1235.52883371 445.58398846 C1248.65959276 458.72786703 1261.79031456 471.87178281 1274.92099348 485.01574143 C1308.94682467 519.0759754 1342.97373386 553.13513228 1377.00145993 587.19347317 C1379.30994961 589.50404087 1381.61843645 591.81461141 1383.92692294 594.1251823 C1418.70270342 628.93232712 1453.47999339 663.73796235 1488.2612896 698.5395956 C1489.35796012 699.63690975 1489.35796012 699.63690975 1490.4767856 700.75639185 C1505.08445802 715.37262909 1519.69230446 729.9886924 1534.30056341 744.60434343 C1542.20081791 752.50860178 1550.10097777 760.4129547 1558.00103378 768.31741142 C1558.70780738 769.02457747 1559.41458099 769.73174351 1560.14277197 770.46033883 C1583.61283869 793.94356301 1607.07664117 817.43303595 1630.53740377 840.92555505 C1652.7550684 863.17325106 1674.97722547 885.41645001 1697.20497427 907.65407111 C1700.37475494 910.82526707 1703.54447728 913.99652131 1706.71416283 917.16781235 C1707.33550191 917.7894631 1707.956841 918.41111385 1708.59700854 919.0516025 C1718.4300763 928.88989259 1728.25804789 938.73325731 1738.0838823 948.57877106 C1747.74892876 958.26297517 1757.41930594 967.94182875 1767.09534801 977.61504679 C1772.76559842 983.28397077 1778.43169635 988.95696945 1784.09167787 994.63614657 C1788.29865999 998.85647507 1792.51348265 1003.06888219 1796.73136517 1007.27831979 C1798.42256478 1008.96855079 1800.11125888 1010.66129354 1801.79708566 1012.35688341 C1811.06959507 1021.68009225 1820.41600336 1030.37347034 1831 1038.1875 C1832.20508501 1039.08870446 1833.40993038 1039.99022946 1834.61454339 1040.89206475 C1842.38491792 1046.70463356 1850.53907342 1051.6125161 1859.09765625 1056.17333984 C1860.83270027 1057.09831069 1862.55756709 1058.04230765 1864.28125 1058.98828125 C1914.09112615 1085.28354354 1978.4619858 1090.21496676 2032.3125 1074.3125 C2036.56140607 1072.99346563 2040.78523185 1071.61154381 2045 1070.1875 C2045.81307617 1069.91647461 2046.62615234 1069.64544922 2047.46386719 1069.36621094 C2057.76958293 1065.88252474 2067.41159812 1061.27899758 2077 1056.1875 C2077.99 1055.67147217 2077.99 1055.67147217 2079 1055.14501953 C2105.28159547 1041.3818305 2128.35274102 1020.9499519 2146 997.1875 C2146.43054687 996.61241699 2146.86109375 996.03733398 2147.3046875 995.44482422 C2182.83076596 947.7672121 2197.77020909 887.86542933 2189.875 828.9375 C2189.35532761 825.66045427 2188.7147323 822.42723447 2188 819.1875 C2187.80132324 818.27274902 2187.60264648 817.35799805 2187.39794922 816.41552734 C2176.6171855 768.39065707 2150.9257489 730.85768518 2116.52548218 696.60618591 C2115.41261319 695.49431604 2114.29997013 694.38222 2113.18753016 693.26992089 C2110.16497682 690.24899521 2107.13933487 687.23118037 2104.11314535 684.21389782 C2100.83655301 680.94580409 2097.56293813 677.67473021 2094.28898621 674.4039917 C2088.62561923 668.74689788 2082.96053052 663.09153313 2077.29435349 657.43725395 C2069.0913863 649.25132959 2060.89218842 641.06163771 2052.69407423 632.87085343 C2039.37606119 619.56476408 2026.05654116 606.26018458 2012.73535156 592.95727539 C2011.54151047 591.76506948 2011.54151047 591.76506948 2010.32355137 590.5487786 C1999.02273811 579.26358397 1987.72043595 567.97988166 1976.41754396 556.69676907 C1975.62104352 555.90166193 1974.82454307 555.1065548 1974.00390625 554.28735352 C1973.20838303 553.49322382 1972.4128598 552.69909413 1971.59322982 551.8808999 C1958.31494392 538.625672 1945.04053819 525.36656614 1931.76928771 512.10429436 C1923.59498846 503.93583597 1915.41745592 495.77064149 1907.2356862 487.60966564 C1901.62948697 482.0172056 1896.02693091 476.42111303 1890.42719339 470.82218295 C1887.20027713 467.59596843 1883.97176328 464.37139711 1880.73879433 461.15124702 C1877.77373763 458.19788498 1874.8134276 455.23984686 1871.85666819 452.2781787 C1870.79197534 451.21333578 1869.72561409 450.15015754 1868.65732996 449.08891755 C1862.74645166 443.21497626 1857.17839564 437.19270493 1851.98321307 430.66713291 C1849.9814099 428.1642566 1847.90786613 425.73723767 1845.8125 423.3125 C1813.10699776 383.18690127 1791.22903341 328.4229684 1790.76171875 276.3515625 C1790.74709595 274.98775955 1790.74709595 274.98775955 1790.73217773 273.59640503 C1790.55783287 253.11633204 1790.87750381 233.33258539 1795 213.1875 C1795.18723633 212.24664551 1795.37447266 211.30579102 1795.56738281 210.33642578 C1805.02261399 164.01559116 1827.47108243 120.27496272 1859 85.1875 C1859.74032471 84.35460449 1859.74032471 84.35460449 1860.49560547 83.50488281 C1905.06296964 33.46993117 1969.1936162 4.72104943 2035.60169315 0.36714837 C2045.8150934 -0.17277365 2056.04780715 -0.09778062 2066.27234432 -0.08183783 C2069.85271324 -0.0785121 2073.43306051 -0.08690162 2077.01342201 -0.09365618 C2083.26272345 -0.10387193 2089.51199398 -0.10681484 2095.76130295 -0.10474396 C2105.05395147 -0.10167218 2114.34656621 -0.11006509 2123.63920812 -0.12049321 C2141.20081695 -0.13975279 2158.76241403 -0.14545819 2176.32403219 -0.14660732 C2189.87888562 -0.14752849 2203.43373448 -0.15165595 2216.98858643 -0.15800858 C2220.89831225 -0.15980374 2224.80803807 -0.16158338 2228.7177639 -0.16335833 C2229.68983227 -0.16380043 2230.66190063 -0.16424252 2231.66342562 -0.16469802 C2258.96906757 -0.17698984 2286.27470794 -0.18490071 2313.58035278 -0.18401146 C2314.60800312 -0.1839803 2315.63565345 -0.18394914 2316.6944447 -0.18391704 C2321.90243255 -0.18375084 2327.1104204 -0.18355276 2332.31840825 -0.18334763 C2333.86977748 -0.18328779 2333.86977748 -0.18328779 2335.4524875 -0.18322675 C2337.5439725 -0.18314587 2339.63545751 -0.18306228 2341.72694251 -0.18297596 C2374.31700291 -0.18174859 2406.90702179 -0.19680486 2439.49707031 -0.22412109 C2476.1441772 -0.25482553 2512.79125681 -0.27205496 2549.43837738 -0.27019465 C2553.34307353 -0.27004539 2557.24776967 -0.26994798 2561.15246582 -0.26988602 C2562.11384946 -0.26986271 2563.07523311 -0.2698394 2564.06574959 -0.26981538 C2579.54272818 -0.26975382 2595.01967069 -0.2825291 2610.49663855 -0.29975055 C2626.03338196 -0.31668187 2641.57007247 -0.31870012 2657.10681999 -0.3055319 C2666.33905821 -0.29812925 2675.57113592 -0.30184029 2684.80335721 -0.32141658 C2690.96666942 -0.33338352 2697.12986491 -0.33086235 2703.29317167 -0.31647559 C2706.80647794 -0.30868537 2710.31947274 -0.30723854 2713.83275747 -0.32339029 C2717.61603792 -0.33742822 2721.39848096 -0.32698917 2725.18173218 -0.31027794 C2726.81966718 -0.32518248 2726.81966718 -0.32518248 2728.49069178 -0.34038812 C2735.91260898 -0.27072844 2741.2858808 0.91792788 2747.0234375 5.96875 C2747.46945313 6.5359375 2747.91546875 7.103125 2748.375 7.6875 C2748.83648438 8.2546875 2749.29796875 8.821875 2749.7734375 9.40625 C2753.53393803 14.86735905 2753.71450533 19.66650828 2753 26.1875 C2751.23686402 32.36375479 2747.32512874 36.71122053 2742 40.1875 C2738.4895982 41.80776267 2735.74109118 42.43856111 2731.88394165 42.44578552 C2730.37107826 42.45602753 2730.37107826 42.45602753 2728.82765198 42.46647644 C2727.73162155 42.46392349 2726.63559113 42.46137054 2725.50634766 42.45874023 C2724.34287308 42.46396698 2723.1793985 42.46919373 2721.98066711 42.47457886 C2719.4522092 42.48482075 2716.9237302 42.49059959 2714.39525223 42.49246025 C2710.37264074 42.49613155 2706.35027716 42.51253853 2702.32772827 42.53321838 C2692.32052289 42.58228606 2682.31327071 42.61305913 2672.30596924 42.63452148 C2664.55447835 42.65118585 2656.80313216 42.67444414 2649.05173719 42.71754223 C2645.72041518 42.73548806 2642.38945998 42.74611633 2639.05806351 42.74624443 C2618.48830711 42.74732082 2598.2648228 43.8711174 2578.25 48.9375 C2576.69055664 49.32591064 2576.69055664 49.32591064 2575.09960938 49.72216797 C2550.13539492 56.13967424 2525.95897851 67.15523932 2505 82.1875 C2504.41331543 82.60741211 2503.82663086 83.02732422 2503.22216797 83.45996094 C2495.53675546 89.02998268 2488.38354438 95.17032845 2481.52685547 101.72802734 C2480.49684225 102.71258427 2479.46187541 103.6919814 2478.42236328 104.66650391 C2469.15974821 113.37150336 2461.40802991 122.87203052 2454 133.1875 C2453.55027832 133.80850586 2453.10055664 134.42951172 2452.63720703 135.06933594 C2427.95986474 169.47371849 2413.15703657 212.82990047 2412 255.1875 C2411.96003906 256.47914063 2411.92007813 257.77078125 2411.87890625 259.1015625 C2411.64892214 270.22704366 2412.57589087 281.16082644 2414 292.1875 C2414.10763672 293.06083984 2414.21527344 293.93417969 2414.32617188 294.83398438 C2419.74118494 336.83857724 2439.53465219 377.77400703 2468.55078125 408.5625 C2470.4290814 410.57560638 2472.22342887 412.61089899 2474.01108366 414.70170492 C2478.54120973 419.88499949 2483.40014318 424.72594556 2488.27188015 429.58522129 C2489.30790799 430.62229384 2490.34371688 431.65958515 2491.37932816 432.69707367 C2494.22049437 435.54212419 2497.06475178 438.38406647 2499.90953357 441.22550112 C2503.00592775 444.31935478 2506.09941775 447.41611004 2509.19328219 450.51249307 C2514.614383 455.93720409 2520.03734002 461.36005393 2525.46152115 466.78168488 C2533.52746001 474.84384183 2541.59053938 482.90885407 2549.6530586 490.97443064 C2564.05266837 505.37930746 2578.45513967 519.78132052 2592.85882693 534.18212006 C2605.46366742 546.78444583 2618.06757912 559.38769959 2630.67056465 571.99188042 C2631.50627593 572.82766808 2632.34198721 573.66345575 2633.20302307 574.52457031 C2636.59537442 577.91723299 2639.98772223 581.3098992 2643.38006422 584.70257122 C2675.20836656 616.53393314 2707.03958547 648.36237708 2738.87210825 680.18951835 C2767.15864395 708.47130839 2795.44259339 736.75568245 2823.72436523 765.04223633 C2855.49299129 796.81621603 2887.2632311 828.58858071 2919.03607947 860.3583383 C2922.42259602 863.74453413 2925.80910864 867.13073391 2929.19561958 870.51693535 C2930.44640659 871.76760374 2930.44640659 871.76760374 2931.72246202 873.04353816 C2944.31925665 885.6391949 2956.91481616 898.23608586 2969.50977898 910.8335743 C2983.82958951 925.15624199 2998.15118148 939.4771257 3012.47513526 953.79564983 C3020.4934891 961.81106455 3028.51046297 969.82785369 3036.52546217 977.84662292 C3041.87747924 983.20087992 3047.23130839 988.55332038 3052.5866231 993.90427908 C3055.6389997 996.95427404 3058.6905822 1000.00505205 3061.73997175 1003.05803371 C3064.51562733 1005.83692561 3067.29358425 1008.61349534 3070.07337213 1011.38825343 C3071.07080967 1012.3846862 3072.06741698 1013.38195093 3073.0630748 1014.38016204 C3107.9854927 1049.38575284 3151.11605178 1072.23080446 3200 1080.1875 C3201.15371094 1080.39375 3202.30742187 1080.6 3203.49609375 1080.8125 C3257.67246298 1089.21012881 3315.01267518 1073.2587536 3358.9609375 1041.23046875 C3364.8820376 1036.82253868 3370.49142296 1032.09682493 3376 1027.1875 C3376.79494873 1026.48512207 3376.79494873 1026.48512207 3377.60595703 1025.76855469 C3383.82489341 1020.25772433 3389.77116914 1014.667675 3395 1008.1875 C3396.24523438 1006.66382813 3396.24523438 1006.66382813 3397.515625 1005.109375 C3423.47108674 972.98500252 3439.8699228 935.22341109 3445 894.1875 C3445.0942627 893.47021729 3445.18852539 892.75293457 3445.28564453 892.01391602 C3445.88526852 887.14344601 3446.10010827 882.34019689 3446.1875 877.43579102 C3446.58595191 860.31325394 3446.58595191 860.31325394 3452 854.1875 C3457.7775415 849.30192982 3463.00164206 846.79081399 3470.59375 846.9140625 C3477.28832075 847.67480918 3481.64073798 851.32695449 3485.7734375 856.40625 C3488.19985386 859.92996293 3489.25361085 862.56273518 3489.265625 866.87109375 C3489.27005615 867.78681152 3489.2744873 868.7025293 3489.27905273 869.64599609 C3489.26946533 870.62906738 3489.25987793 871.61213867 3489.25 872.625 C3489.24105713 873.65705566 3489.23211426 874.68911133 3489.22290039 875.75244141 C3488.34147348 935.40631879 3465.12197154 995.6514856 3424 1039.1875 C3422.89072135 1040.47477918 3421.78643909 1041.76638284 3420.6875 1043.0625 C3412.56873175 1052.34377086 3403.71779678 1060.60681206 3394 1068.1875 C3393.01644531 1068.97640625 3392.03289063 1069.7653125 3391.01953125 1070.578125 C3355.54161018 1098.78854241 3311.94171663 1117.25162437 3267 1123.1875 C3266.20964355 1123.29191406 3265.41928711 1123.39632813 3264.60498047 1123.50390625 C3199.05008855 1131.75210288 3131.52179645 1114.16343518 3078.1875 1075.25 C3077.48415527 1074.73791992 3076.78081055 1074.22583984 3076.05615234 1073.69824219 C3059.54158495 1061.33588733 3045.16010422 1046.63834673 3030.62938935 1032.07382446 C3027.46593126 1028.90524806 3024.29662766 1025.74252679 3021.1280998 1022.57902157 C3015.58713016 1017.04524538 3010.04985236 1011.50779688 3004.51503754 1005.96786499 C2996.28454522 997.72978419 2988.04831528 989.49745738 2979.81097778 981.26622185 C2965.09744342 966.56320187 2950.38961497 951.85448469 2935.68422913 937.14331537 C2922.81761346 924.27166434 2909.94913528 911.401879 2897.07880783 898.53393936 C2896.22438274 897.67966704 2895.36995765 896.82539472 2894.48964088 895.94523535 C2891.02110692 892.47732408 2887.5525659 889.00941987 2884.08401327 885.54152727 C2851.56515134 853.02877961 2819.05211815 820.51020874 2786.54169898 787.98901918 C2757.66372074 759.10154673 2728.78057203 730.21925357 2699.89306641 701.34130859 C2667.42452042 668.88347257 2634.95920892 636.42240694 2602.49910772 603.95612538 C2599.03884403 600.49522027 2595.57857247 597.03432302 2592.11829758 593.57342911 C2591.26631489 592.72128827 2590.41433221 591.86914743 2589.53653187 590.99118414 C2576.67445476 578.12683272 2563.80991293 565.26494956 2550.94417191 552.40426254 C2536.31745504 537.78326285 2521.69431461 523.15869677 2507.07588346 508.52941261 C2498.89579129 500.3434477 2490.71296507 492.16023861 2482.52616284 483.98098433 C2477.05707436 478.51638218 2471.59163553 473.04814782 2466.12914167 467.57695363 C2463.01754902 464.46060679 2459.90441936 461.34584017 2456.78684874 458.23547266 C2453.9465062 455.40162578 2451.11086721 452.56315663 2448.27878883 449.72105143 C2447.26402221 448.7042833 2446.24760876 447.68915514 2445.22928008 446.67595456 C2438.69764152 440.17485929 2432.71088401 433.41950127 2427 426.1875 C2426.51539593 425.58335266 2426.03079186 424.97920532 2425.53150282 424.35675048 C2395.71402291 387.03843396 2376.95139856 342.51294994 2371 295.1875 C2370.91674973 294.54888031 2370.83349945 293.91026062 2370.74772644 293.25228882 C2370.04235712 287.48366891 2369.8107822 281.78504817 2369.76171875 275.9765625 C2369.74716393 274.53953979 2369.74716393 274.53953979 2369.73231506 273.07348633 C2369.70747041 269.98644789 2369.69479832 266.89962833 2369.6875 263.8125 C2369.68357239 262.23381134 2369.68357239 262.23381134 2369.67956543 260.62322998 C2369.67516252 244.11516181 2370.60273157 228.38772287 2374 212.1875 C2374.26968389 210.74115591 2374.53803608 209.29456249 2374.8046875 207.84765625 C2386.05579162 150.97052771 2420.20542217 93.92208297 2466 58.1875 C2467.19606277 57.23662004 2468.39133298 56.28474258 2469.5859375 55.33203125 C2470.82769412 54.3458114 2472.06987691 53.36012788 2473.3125 52.375 C2473.88734131 51.91851074 2474.46218262 51.46202148 2475.05444336 50.99169922 C2475.61010986 50.55486816 2476.16577637 50.11803711 2476.73828125 49.66796875 C2477.22337158 49.28535889 2477.70846191 48.90274902 2478.20825195 48.50854492 C2480.74250793 46.64005343 2483.3772838 44.92879488 2486 43.1875 C2428.93677599 43.11875386 2371.87355599 43.06592456 2314.81029868 43.03430401 C2308.06534553 43.03056234 2301.32039247 43.02667263 2294.57543945 43.02270508 C2293.90427286 43.0223128 2293.23310626 43.02192052 2292.54160128 43.02151636 C2270.82803756 43.00875614 2249.11449741 42.98624012 2227.40094795 42.95860834 C2204.43326785 42.92943402 2181.46559712 42.91149616 2158.49789816 42.90523452 C2144.75391421 42.90112908 2131.009998 42.88818729 2117.26603491 42.8637506 C2107.82666778 42.84782779 2098.38733541 42.84311438 2088.94795584 42.84699587 C2083.51126974 42.84890727 2078.07470157 42.84608774 2072.63803673 42.82988358 C2042.18355828 42.56672133 2042.18355828 42.56672133 2012 46.1875 C2010.79012399 46.41190197 2010.79012399 46.41190197 2009.55580604 46.64083731 C1967.09193531 54.62140857 1930.17424451 75.81424348 1899 105.1875 C1898.21753906 105.91582031 1897.43507813 106.64414062 1896.62890625 107.39453125 C1890.01414401 113.74989105 1884.49640231 120.87138262 1879 128.1875 C1878.34765381 129.04867432 1878.34765381 129.04867432 1877.68212891 129.92724609 C1870.92195831 138.90235313 1865.26994137 148.27302888 1860 158.1875 C1859.66258789 158.80786133 1859.32517578 159.42822266 1858.97753906 160.06738281 C1849.32178163 177.88107774 1842.17295881 197.36213821 1838 217.1875 C1837.80535156 218.08968262 1837.61070312 218.99186523 1837.41015625 219.92138672 C1834.4622008 234.16261269 1833.62874237 248.19188875 1833.625 262.6875 C1833.62309662 263.47516754 1833.62119324 264.26283508 1833.61923218 265.07437134 C1833.63362893 317.61771008 1853.42673573 372.02769362 1890.68798828 409.90332031 C1891.83693682 411.03659119 1892.98767293 412.16805327 1894.14038348 413.29749739 C1895.86232308 415.04757344 1897.45219899 416.84699213 1899.03853226 418.71953392 C1903.75365713 424.13775242 1908.8538332 429.16667056 1913.94207764 434.22964478 C1915.04594562 435.331798 1916.14958686 436.43417836 1917.25302243 437.5367645 C1920.26935621 440.54952967 1923.28878744 443.55917346 1926.30873108 446.56831956 C1929.57179853 449.82086148 1932.83190416 453.0763696 1936.09231567 456.33157349 C1941.73890561 461.96846975 1947.38716275 467.60369087 1953.03639984 473.23793411 C1961.97425734 482.15236378 1970.90688216 491.07202675 1979.83868408 499.99252319 C1982.89856028 503.04839829 1985.95847028 506.10423955 1989.01839066 509.16007042 C1989.78302906 509.9236896 1990.54766747 510.68730878 1991.33547674 511.47406793 C2000.03137107 520.15822917 2008.72833806 528.8413158 2017.42578125 537.52392578 C2018.6177425 538.71385838 2018.6177425 538.71385838 2019.83378378 539.92783003 C2032.70433866 552.77621552 2045.57873835 565.6207431 2058.45411715 578.46429427 C2071.69121357 591.66895002 2084.92250281 604.87940611 2098.14888692 618.09479177 C2106.29673237 626.23543208 2114.44926238 634.37132276 2122.60797146 642.50107555 C2128.20427625 648.07831552 2133.79504518 653.66106557 2139.38158128 659.24809034 C2142.59935766 662.46580399 2145.81947964 665.68107012 2149.04633713 668.88967896 C2152.00893557 671.83562217 2154.96431303 674.78862522 2157.9144527 677.7470433 C2158.97439173 678.80754937 2160.03680733 679.86558826 2161.10214338 680.92067261 C2205.45723655 724.87226417 2233.91118565 788.87540987 2234.46073914 851.41329956 C2234.4678545 854.56742729 2234.45567409 857.72092205 2234.4375 860.875 C2234.43512329 861.9660202 2234.43274658 863.05704041 2234.43029785 864.18112183 C2234.3734895 880.87560034 2233.51713686 896.826533 2230 913.1875 C2229.70716039 914.70029425 2229.41541707 916.21330132 2229.125 917.7265625 C2222.16732311 951.91371506 2206.42833188 986.99983534 2186 1015.1875 C2185.26394531 1016.21488281 2184.52789063 1017.24226563 2183.76953125 1018.30078125 C2172.49710774 1033.68315033 2159.73893462 1049.02246021 2145 1061.1875 C2144.071875 1062.00347656 2143.14375 1062.81945313 2142.1875 1063.66015625 C2129.54304192 1074.73743064 2115.59649772 1083.8921821 2101 1092.1875 C2100.03271973 1092.74002441 2100.03271973 1092.74002441 2099.04589844 1093.30371094 C2059.03733952 1115.92748163 2013.67705019 1125.45320137 1968 1125.375 C1967.23143677 1125.37373108 1966.46287354 1125.37246216 1965.67102051 1125.37115479 C1911.35999389 1125.20101979 1857.38670975 1110.29601125 1813 1078.1875 C1812.3498291 1077.72375977 1811.6996582 1077.26001953 1811.02978516 1076.78222656 C1802.67182297 1070.79711802 1794.81904438 1064.49418806 1787.38590527 1057.39258957 C1784.47325939 1054.62188958 1781.50360998 1051.92058559 1778.52302551 1049.22296143 C1768.70159652 1040.2174312 1759.37279477 1030.69465846 1749.96171629 1021.26528192 C1747.13825773 1018.43745702 1744.31186019 1015.61257207 1741.48583984 1012.78730774 C1736.60400853 1007.90599779 1731.72399426 1003.02287753 1726.84525108 998.13848114 C1719.79162509 991.07668718 1712.73520055 984.01769499 1705.6781157 976.95935777 C1694.22526338 965.50432321 1682.77464051 954.04706279 1671.32543945 942.58837891 C1660.211385 931.46512885 1649.09626839 920.34294194 1637.97973633 909.22216797 C1637.29315576 908.53532467 1636.60657518 907.84848138 1635.89918914 907.14082465 C1632.45440419 903.69473454 1629.0095985 900.24866517 1625.5647825 896.80260611 C1597.03997323 868.26745002 1568.51879035 839.72867148 1540 811.1875 C1540.08733996 811.84708961 1540.17467993 812.50667923 1540.26466656 813.18625641 C1540.6636851 816.20537843 1541.06073954 819.22475571 1541.45776367 822.24414062 C1541.5951873 823.28169495 1541.73261093 824.31924927 1541.87419891 825.38824463 C1546.01746323 856.96149318 1544.17132246 888.03304395 1538 919.1875 C1537.79600586 920.23502441 1537.79600586 920.23502441 1537.58789062 921.30371094 C1529.63980957 960.70117873 1509.17630892 999.25974049 1484 1030.1875 C1483.50677246 1030.7964209 1483.01354492 1031.4053418 1482.50537109 1032.03271484 C1471.63557992 1045.3486627 1459.62507491 1057.68118329 1446 1068.1875 C1444.98550781 1068.99574219 1443.97101563 1069.80398438 1442.92578125 1070.63671875 C1406.36259964 1099.59346766 1362.83952906 1116.26179212 1317 1123.1875 C1315.91549561 1123.36539062 1315.91549561 1123.36539062 1314.80908203 1123.546875 C1270.95920549 1130.65595028 1222.61814515 1123.17766119 1182 1106.1875 C1181.23606934 1105.86910156 1180.47213867 1105.55070312 1179.68505859 1105.22265625 C1152.2031237 1093.59231541 1127.73040076 1077.78791389 1105.70831307 1057.66089851 C1103.96203532 1056.06608998 1102.21011214 1054.47743058 1100.45135428 1052.8963958 C1091.60809059 1044.89730322 1083.18496814 1036.50620474 1074.76564503 1028.06501961 C1073.14027279 1026.43917265 1071.51467843 1024.81354774 1069.88888368 1023.18812329 C1065.42895346 1018.72793925 1060.97215498 1014.26463738 1056.51586046 1009.80082121 C1052.16564863 1005.44377626 1047.81252454 1001.08964178 1043.45971848 996.73518885 C1034.45330599 987.72520976 1025.44923402 978.71289507 1016.44643402 969.69930649 C1007.32720805 960.56918206 998.20685607 951.44018456 989.08512688 942.31256104 C988.50826682 941.73532775 987.93140677 941.15809447 987.3370661 940.56336926 C984.39542556 937.61983997 981.45376259 934.67633309 978.51208832 931.7328375 C972.48211771 925.69912383 966.45228768 919.66526966 960.42250097 913.63137221 C959.81531459 913.02377256 959.2081282 912.4161729 958.58254224 911.79016113 C949.13830588 902.33944963 939.69468907 892.88811932 930.25144827 883.43641305 C929.61379302 882.79818656 928.97613776 882.15996007 928.31915961 881.50239339 C925.72961689 878.9105276 923.14007754 876.31865845 920.55054057 873.72678693 C888.87088905 842.01858024 857.1863945 810.31521724 825.49973554 778.61401334 C818.08111555 771.19198676 810.66255546 763.7699003 803.24399835 756.34781086 C801.88516735 754.98833336 800.52633635 753.62885587 799.16750533 752.26937839 C796.4415148 749.54209072 793.71552489 746.81480241 790.98953528 744.08751381 C788.25348885 741.35016402 785.51744035 738.61281628 782.78139015 735.87547026 C751.23248779 704.31162 719.68440791 672.74694777 688.13708261 641.18152128 C685.99872847 639.04194106 683.86037188 636.90236328 681.72201505 634.76278575 C648.78736084 601.80929558 615.85421015 568.85430415 582.92462158 535.89575195 C582.21631642 535.18682432 581.50801125 534.47789669 580.77824229 533.7474864 C569.35741084 522.316609 557.93665784 510.88565321 546.5159218 499.45468048 C513.61206926 466.52133616 480.70700145 433.58920908 447.79520702 400.66380119 C447.11821745 399.98653036 446.44122788 399.30925953 445.74372347 398.61146534 C431.54882284 384.41069889 417.35349902 370.21035555 403.15762755 356.0105596 C396.50973591 349.36082758 389.86193803 342.71100183 383.21419334 336.06112289 C382.55970558 335.40642838 381.90521781 334.75173387 381.23089709 334.07720013 C360.16134095 313.00089475 339.09837564 291.91801733 318.03895256 270.83158739 C296.82591083 249.59138469 275.60674459 228.35732185 254.37899498 207.13181781 C251.44322636 204.19635535 248.5075303 201.26082032 245.57187843 198.32524109 C244.70870864 197.46210009 244.70870864 197.46210009 243.82810107 196.5815219 C234.73106936 187.48442114 225.64078441 178.38060968 216.55332602 169.27394678 C207.60894262 160.31093735 198.65740757 151.3551232 189.69831704 142.40681396 C184.90970889 137.62357668 180.12451174 132.83705187 175.34804276 128.04168881 C170.99650717 123.67306274 166.63573259 119.31387965 162.26763448 114.9618159 C160.70488354 113.40161351 159.14542825 111.83810064 157.58984282 110.27075384 C142.85879621 95.43529815 126.89865767 82.99853454 109 72.1875 C108.40606445 71.82849609 107.81212891 71.46949219 107.20019531 71.09960938 C95.17180109 63.97116725 82.05719348 59.07584132 69 54.1875 C68.25637207 53.90745117 67.51274414 53.62740234 66.74658203 53.33886719 C15.70559589 34.55903709 -46.34910818 40.44244778 -95.20385742 62.83691406 C-135.55564276 81.85058017 -168.65544933 112.6892906 -191 151.1875 C-191.40959961 151.89148926 -191.81919922 152.59547852 -192.24121094 153.32080078 C-206.00214717 177.33529957 -214.97264797 203.84304751 -219 231.1875 C-219.25487183 232.80023804 -219.25487183 232.80023804 -219.51489258 234.44555664 C-220.94555324 244.09916751 -221.36234565 253.50624246 -221.3125 263.25 C-221.31034485 264.01373932 -221.3081897 264.77747864 -221.30596924 265.56436157 C-221.18543591 292.31126551 -216.4572194 318.46597016 -206 343.1875 C-205.70367676 343.90067383 -205.40735352 344.61384766 -205.10205078 345.34863281 C-192.06273487 376.53754085 -172.58234752 401.80482425 -148.71456909 425.5864563 C-147.59787885 426.7028659 -146.48141129 427.81949828 -145.36514485 428.93633163 C-142.32280594 431.97896379 -139.27738069 435.01848975 -136.23141551 438.05749106 C-132.93713333 441.34536264 -129.64578834 444.63617224 -126.35409546 447.92663574 C-120.65746286 453.62038974 -114.95905985 459.31236681 -109.25948715 465.00317764 C-101.0108651 473.23921276 -92.76551202 481.47851446 -84.5210339 489.71869753 C-71.13215363 503.10051984 -57.7414064 516.48047215 -44.34912109 529.85888672 C-43.54858079 530.65859921 -42.74804049 531.4583117 -41.92324139 532.2822579 C-36.24054375 537.95905481 -30.55777927 543.63578481 -24.875 549.3125 C-18.37999873 555.8005716 -11.88502874 562.28867451 -5.39013672 568.77685547 C-4.18988701 569.97586299 -4.18988701 569.97586299 -2.96538983 571.19909288 C10.38102333 584.53181555 23.72546935 597.8665054 37.06851566 611.2025975 C45.29190534 619.42151031 53.51706764 627.63864148 61.74453519 635.85347222 C67.38031956 641.48082421 73.01432952 647.10994852 78.64695276 652.74046458 C81.8951245 655.98729298 85.1441176 659.23328833 88.39532471 662.47707748 C91.37420583 665.44918769 94.35074789 668.42362015 97.32548724 671.39987563 C98.39915303 672.47327103 99.4736631 673.5458228 100.54912402 674.61741962 C106.24779593 680.29657296 111.81254004 686.03212391 117 692.1875 C117.55402972 692.84121019 118.10805945 693.49492039 118.67887795 694.16843998 C141.97520445 721.76113818 159.24888585 753.72651036 170 788.1875 C170.24443848 788.94820801 170.48887695 789.70891602 170.74072266 790.49267578 C183.35154852 830.39250187 182.91208617 873.4976386 175 914.1875 C174.84547363 915.04166504 174.69094727 915.89583008 174.53173828 916.77587891 C170.56439355 938.56501705 161.77934853 960.40908888 152 980.1875 C151.60312988 980.99364746 151.20625977 981.79979492 150.79736328 982.63037109 C138.27036162 1007.81853906 121.31499073 1029.81405885 102 1050.1875 C100.93265625 1051.31865234 100.93265625 1051.31865234 99.84375 1052.47265625 C94.61515871 1057.86196244 88.8690109 1062.51655592 83 1067.1875 C81.94964668 1068.05102114 80.90019037 1068.91563435 79.8515625 1069.78125 C51.4141942 1093.01486221 17.03610924 1109.33759332 -18.63891602 1117.62915039 C-20.70654699 1118.11810417 -22.76101811 1118.66203664 -24.8125 1119.21484375 C-30.60389734 1120.66982175 -36.53361058 1121.40198093 -42.4375 1122.25 C-43.61376953 1122.42337891 -44.79003906 1122.59675781 -46.00195312 1122.77539062 C-49.33315625 1123.26138504 -52.66294184 1123.74334787 -56 1124.1875 C-57.90707481 1124.4429232 -57.90707481 1124.4429232 -59.85267639 1124.70350647 C-66.13569058 1125.39100881 -72.41615978 1125.35906704 -78.73046875 1125.38037109 C-80.09648843 1125.38828923 -81.46250612 1125.39655918 -82.82852173 1125.40515137 C-87.28149477 1125.43115028 -91.73447625 1125.44664587 -96.1875 1125.4609375 C-97.72797652 1125.46630428 -99.268453 1125.47168179 -100.80892944 1125.47706985 C-107.21730235 1125.49865644 -113.62567294 1125.51739306 -120.03407288 1125.52869225 C-129.18564682 1125.54494261 -138.33679725 1125.5781949 -147.48821163 1125.63509309 C-153.94368198 1125.67385123 -160.39903924 1125.69333122 -166.85462284 1125.69861281 C-170.70197141 1125.70225512 -174.54886593 1125.7141582 -178.39608765 1125.74671555 C-182.0144239 1125.77690463 -185.63203369 1125.78307023 -189.25046921 1125.77133179 C-191.19891949 1125.77100783 -193.14732572 1125.79539471 -195.09561157 1125.82070923 C-203.89500491 1125.7585376 -210.06296396 1124.12453604 -216.375 1117.8125 C-220.39108457 1111.32497878 -222.26446283 1105.85857448 -221 1098.1875 C-218.67541864 1092.35021791 -214.25260299 1087.58347822 -209 1084.1875 C-205.79371018 1083.16709843 -202.83692128 1083.05600367 -199.48374939 1083.04273987 C-198.36138382 1083.03584137 -197.23901825 1083.02894287 -196.0826416 1083.02183533 C-194.85517212 1083.01922195 -193.62770264 1083.01660858 -192.36303711 1083.01391602 C-190.37248252 1083.00364965 -188.38192794 1082.99338123 -186.39137375 1082.98303688 C-184.25131048 1082.97281073 -182.11124955 1082.96495557 -179.97117424 1082.95770454 C-175.49193894 1082.94219414 -171.01277312 1082.91823718 -166.53358459 1082.89280701 C-153.79546531 1082.8217838 -141.05730433 1082.76220419 -128.3190918 1082.71069336 C-121.2838424 1082.68216905 -114.24866035 1082.64666076 -107.21348196 1082.60403961 C-103.50007115 1082.58188553 -99.78672149 1082.563274 -96.07325554 1082.55359077 C-76.3392983 1082.50015994 -57.02734201 1081.97217183 -37.625 1078 C-36.57973145 1077.78786865 -35.53446289 1077.5757373 -34.45751953 1077.35717773 C-24.0016071 1075.13404895 -14.01202871 1071.897085 -4 1068.1875 C-3.32324219 1067.94418945 -2.64648438 1067.70087891 -1.94921875 1067.45019531 C20.31816138 1059.41171644 41.21224272 1046.77323588 59 1031.1875 C59.80179687 1030.49527344 60.60359375 1029.80304688 61.4296875 1029.08984375 C63.99571756 1026.8312454 66.50507389 1024.52442637 69 1022.1875 C69.73839111 1021.50010742 69.73839111 1021.50010742 70.49169922 1020.79882812 C96.83438036 996.07331999 114.28602893 964.01985805 126 930.1875 C126.41894531 929.02347656 126.83789062 927.85945313 127.26953125 926.66015625 C131.02018571 915.52773564 132.91698546 903.72688136 135 892.1875 C135.19198975 891.15214111 135.38397949 890.11678223 135.58178711 889.05004883 C137.02489842 880.64445669 137.36040514 872.39148439 137.3125 863.875 C137.31034485 863.18018524 137.3081897 862.48537048 137.30596924 861.76950073 C137.10341667 820.73972664 126.00273131 779.46846641 103 745.1875 C102.56316895 744.53571777 102.12633789 743.88393555 101.67626953 743.21240234 C100.21516486 741.04808148 98.73638571 738.89702844 97.25 736.75 C96.80938232 736.10659668 96.36876465 735.46319336 95.91479492 734.80029297 C87.57326367 722.97281384 77.55955527 712.4458303 67.31584167 702.26956177 C66.19222444 701.14578793 65.06905102 700.0215702 63.94627553 698.89695537 C60.90153505 695.84971528 57.85067872 692.8086672 54.79867566 689.76870346 C51.49237973 686.47320155 48.19197672 683.17180662 44.89083862 679.87113953 C39.18279569 674.16544756 33.47117626 668.46335677 27.75710106 662.76370621 C19.48760132 654.51498234 11.22419323 646.26017724 2.96230451 638.00383101 C-10.45622789 624.59453322 -23.878852 611.18933941 -37.30444336 597.78710938 C-38.10627777 596.98666828 -38.90811218 596.18622718 -39.73424461 595.36153029 C-40.53709307 594.56007736 -41.33994153 593.75862443 -42.16711873 592.93288505 C-53.56159779 581.55819392 -64.95509581 570.18252133 -76.34741211 558.80566406 C-77.14977741 558.00438962 -77.9521427 557.20311517 -78.7788221 556.37755968 C-92.16141506 543.01299512 -105.54197337 529.64639468 -118.92149371 516.27875412 C-127.16394291 508.04388582 -135.40846186 499.81109951 -143.65569111 491.58101837 C-149.30259195 485.94569489 -154.94779093 480.30867053 -160.59166215 474.67031284 C-163.84591355 471.41938824 -167.1010039 468.16931497 -170.35832405 464.92146492 C-173.34263589 461.94581398 -176.32460833 458.96783899 -179.30478128 455.98804305 C-180.38037084 454.91341535 -181.45680986 453.83963702 -182.53420553 452.76682009 C-188.24036956 447.08396881 -193.78658447 441.33000102 -199 435.1875 C-199.88803605 434.17725277 -200.77730027 433.1680834 -201.66796875 432.16015625 C-212.90178673 419.18466107 -222.59768782 405.14650939 -231 390.1875 C-231.42104004 389.4464502 -231.84208008 388.70540039 -232.27587891 387.94189453 C-248.83547898 358.52880422 -258.9564847 326.68753117 -263 293.1875 C-263.0935376 292.48012695 -263.1870752 291.77275391 -263.28344727 291.04394531 C-264.25768593 282.82472505 -264.19832952 274.57630061 -264.1875 266.3125 C-264.18722809 265.53437958 -264.18695618 264.75625916 -264.18667603 263.95455933 C-264.16859233 252.69709428 -263.86723659 241.59401521 -262.30761719 230.42822266 C-261.98581802 228.08419662 -261.71441318 225.73733681 -261.4453125 223.38671875 C-259.89761638 210.79812518 -256.63594334 198.9115375 -252.83154297 186.83007812 C-252.13138876 184.60504316 -251.45318046 182.37542778 -250.78515625 180.140625 C-235.65318139 131.67522509 -203.77313205 84.75391915 -163 54.1875 C-162.38141113 53.71425293 -161.76282227 53.24100586 -161.12548828 52.75341797 C-138.57086701 35.55799293 -113.12300701 21.65067423 -86 13.1875 C-85.01209473 12.87039062 -84.02418945 12.55328125 -83.00634766 12.2265625 C-55.89405549 3.60636861 -28.41394279 -0.04424572 0 0 Z " fill="#FEFEFE" transform="translate(422,157.8125)"/>
</svg>
